<svg xmlns="http://www.w3.org/2000/svg" width="112.087" height="112.234" viewBox="0 0 112.087 112.234">
  <g id="logo-eiakebana_1" data-name="logo-eiakebana 1" transform="translate(-64.648 66.2)">
    <g id="Group_37418" data-name="Group 37418" transform="translate(61.948 -68)">
      <path id="Path_99659" data-name="Path 99659" d="M112.912,114.034H4.554A1.87,1.87,0,0,1,2.7,112.18V3.654A1.87,1.87,0,0,1,4.554,1.8H112.912a1.87,1.87,0,0,1,1.854,1.854V112.012A1.736,1.736,0,0,1,112.912,114.034Z"/>
      <path id="Path_99660" data-name="Path 99660" d="M89.537,18.229c0,.961-16.14,1.729-36.122,1.729S17.1,19.19,17.1,18.229,33.24,16.5,53.222,16.5,89.537,17.269,89.537,18.229Z" transform="translate(5.429 5.494)" fill="#fff"/>
      <path id="Path_99661" data-name="Path 99661" d="M90.3,26.051c0,2.114-16.524,3.651-36.7,3.651s-36.7-1.537-36.7-3.651c0-1.921,16.524-3.651,36.7-3.651S90.3,24.129,90.3,26.051Z" transform="translate(5.245 10.93)" fill="#fff"/>
      <path id="Path_99662" data-name="Path 99662" d="M91.435,37.693c0,4.227-16.716,7.493-37.467,7.493S16.5,41.728,16.5,37.693c0-4.227,16.716-7.493,37.467-7.493S91.435,33.466,91.435,37.693Z" transform="translate(4.877 18.116)" fill="#fff"/>
      <path id="Path_99663" data-name="Path 99663" d="M91.435,53.144c0,6.148-16.716,11.144-37.467,11.144S16.5,59.293,16.5,53.144,33.216,42,53.967,42,91.435,46.8,91.435,53.144Z" transform="translate(4.877 28.989)" fill="#fff"/>
    </g>
  </g>
</svg>
