<svg xmlns="http://www.w3.org/2000/svg" width="294.602" height="66.603" viewBox="0 0 294.602 66.603">
  <g id="logo-eiakebana" transform="translate(-2.699 -1.799)">
    <path id="Exclusion_1" data-name="Exclusion 1" d="M16941.1-13063.6h-64.3a1.118,1.118,0,0,1-1.1-1.1v-64.4a1.117,1.117,0,0,1,1.1-1.1h64.3a1.117,1.117,0,0,1,1.1,1.1v64.3a1.019,1.019,0,0,1-.225.835A1.13,1.13,0,0,1,16941.1-13063.6Zm-32.1-26.4a50.483,50.483,0,0,0-13.8,1.7c-3.676,1.095-5.7,2.551-5.7,4.1s2.023,3,5.7,4.1a50.452,50.452,0,0,0,13.8,1.7,50.447,50.447,0,0,0,13.8-1.7c3.676-1.1,5.7-2.552,5.7-4.1,0-1.586-2.023-3.056-5.7-4.138A51.14,51.14,0,0,0,16909-13090Zm0-11.8c-10.936,0-19.5,1.715-19.5,3.9,0,1.022,2.023,1.994,5.7,2.737a73.19,73.19,0,0,0,13.8,1.162,74.607,74.607,0,0,0,13.8-1.125c3.676-.73,5.7-1.716,5.7-2.774C16928.5-13100.087,16919.936-13101.8,16909-13101.8Zm0-7.8c-5.031,0-9.822.2-13.49.575-3.566.361-5.611.845-5.611,1.325,0,.526,1.992,1.011,5.611,1.363,3.551.347,8.342.537,13.49.537s9.936-.19,13.486-.537c3.621-.353,5.613-.837,5.613-1.363,0-.48-2.045-.964-5.613-1.325C16918.82-13109.4,16914.031-13109.6,16909-13109.6Zm-.1-5.9c-10.365,0-18.8.4-18.8.9s8.479.9,18.9.9c10.365,0,18.8-.405,18.8-.9S16919.32-13115.5,16908.9-13115.5Z" transform="translate(-16873 13132)" fill="#fff"/>
    <rect id="Rectangle_8518" data-name="Rectangle 8518" width="209.9" height="47.4" transform="translate(87.4 11.4)" fill="none"/>
    <g id="Group_41019" data-name="Group 41019">
      <path id="Path_99951" data-name="Path 99951" d="M90.6,56.8V15h18.3v5.9H99.1v11h7.6v5.9H99.1V50.9H109v5.9H90.6Z" fill="#fff"/>
      <path id="Path_99952" data-name="Path 99952" d="M112.9,22.1V16.2h7.9v5.9Zm0,34.7V26.9h7.8V56.8Z" fill="#fff"/>
      <path id="Path_99953" data-name="Path 99953" d="M126.1,56.8V14.9h7.8V38.5L141.3,27h8.6l-7.6,12.1,7.6,17.7h-8.4l-5.3-14.4-2.3,3V56.8h-7.8Z" fill="#fff"/>
      <path id="Path_99954" data-name="Path 99954" d="M158.6,57.3a6.379,6.379,0,0,1-3.6-1.1,6.843,6.843,0,0,1-3.1-6.1,14.98,14.98,0,0,1,.2-2.2,10.549,10.549,0,0,1,.5-1.9,6.467,6.467,0,0,1,.9-1.6c.4-.5.8-.9,1.1-1.3a4.839,4.839,0,0,1,1.5-1.1,8.464,8.464,0,0,1,1.5-.9,14.369,14.369,0,0,1,1.7-.8c.6-.3,1.2-.5,1.6-.7a7.963,7.963,0,0,1,1.7-.6c.7-.3,1.2-.4,1.6-.6V35.6a5.2,5.2,0,0,0-.4-2.4,1.7,1.7,0,0,0-1.6-.8c-1.3,0-2.1.9-2.1,2.8l-.1,2.1-7.4-.3a3.4,3.4,0,0,1,.1-1c.2-3.2,1.1-5.5,2.9-7.1s4.1-2.3,7.4-2.3c2.9,0,5.2.8,6.6,2.4a9.46,9.46,0,0,1,2.3,6.6V49.4a68.985,68.985,0,0,0,.5,7.5h-7c-.4-2.2-.6-3.6-.7-4.3a7.522,7.522,0,0,1-2.1,3.4A6.829,6.829,0,0,1,158.6,57.3Zm2.9-5.7a3.739,3.739,0,0,0,1.5-.5,3.838,3.838,0,0,0,1.1-1.1V41.8a12.015,12.015,0,0,0-3.5,2.8,5.983,5.983,0,0,0-1.5,3.6,4.265,4.265,0,0,0,.6,2.4A1.915,1.915,0,0,0,161.5,51.6Z" fill="#fff"/>
      <path id="Path_99955" data-name="Path 99955" d="M186.2,57.3c-3.3,0-5.8-.9-7.6-2.7s-2.5-4.5-2.5-7.9V37.1c0-3.4.8-6,2.5-7.9s4.1-2.7,7.5-2.7,5.8.9,7.4,2.7,2.3,4.6,2.3,8.1v5H183.9v4.9a9.152,9.152,0,0,0,.4,3.3,1.8,1.8,0,0,0,1.8,1.1c1.6,0,2.3-1.1,2.3-3.3V45.5h7.3v2.4c0,3-.8,5.4-2.5,7C191.6,56.5,189.3,57.3,186.2,57.3Zm-2.3-18.7h4.6V35.7a6.671,6.671,0,0,0-.5-2.8,2.067,2.067,0,0,0-1.8-.8,2.019,2.019,0,0,0-1.8.9,8.383,8.383,0,0,0-.5,3.3Z" fill="#fff"/>
      <path id="Path_99956" data-name="Path 99956" d="M214.3,57.3a9.041,9.041,0,0,1-6-2.7v2.2h-7.8V15h7.8V29.2a8.883,8.883,0,0,1,6.1-2.7h.2a5.167,5.167,0,0,1,3.1.9,4.96,4.96,0,0,1,2,2.3,16.621,16.621,0,0,1,1,2.9,16.551,16.551,0,0,1,.3,3.2V47.2a13.389,13.389,0,0,1-1.7,7.3A5.2,5.2,0,0,1,214.3,57.3ZM211,52h0a1.889,1.889,0,0,0,1.8-1.1,9.33,9.33,0,0,0,.5-3.2V35.3c0-2.6-.7-3.8-2.2-3.8H211a5.33,5.33,0,0,0-2.6,1V51.2A4.957,4.957,0,0,0,211,52Z" fill="#fff"/>
      <path id="Path_99957" data-name="Path 99957" d="M232,57.3a6.379,6.379,0,0,1-3.6-1.1,6.843,6.843,0,0,1-3.1-6.1,14.98,14.98,0,0,1,.2-2.2A13.323,13.323,0,0,1,226,46a6.467,6.467,0,0,1,.9-1.6c.4-.5.8-.9,1.1-1.3a4.839,4.839,0,0,1,1.5-1.1,8.464,8.464,0,0,1,1.5-.9,14.369,14.369,0,0,1,1.7-.8c.6-.3,1.2-.5,1.6-.7A7.963,7.963,0,0,1,236,39c.7-.3,1.2-.4,1.6-.6V35.6a5.2,5.2,0,0,0-.4-2.4,1.7,1.7,0,0,0-1.6-.8c-1.3,0-2.1.9-2.1,2.8l-.1,2.1L226,37a3.4,3.4,0,0,1,.1-1c.2-3.2,1.1-5.5,2.9-7.1s4.1-2.3,7.4-2.3c2.9,0,5.2.8,6.6,2.4a9.46,9.46,0,0,1,2.3,6.6V49.4a68.985,68.985,0,0,0,.5,7.5h-7c-.4-2.2-.6-3.6-.7-4.3A7.522,7.522,0,0,1,236,56,7.591,7.591,0,0,1,232,57.3Zm2.9-5.7a3.739,3.739,0,0,0,1.5-.5,3.838,3.838,0,0,0,1.1-1.1V41.8a12.015,12.015,0,0,0-3.5,2.8,5.983,5.983,0,0,0-1.5,3.6,4.265,4.265,0,0,0,.6,2.4A1.749,1.749,0,0,0,234.9,51.6Z" fill="#fff"/>
      <path id="Path_99958" data-name="Path 99958" d="M250,56.8V26.9h7.8v2.9c2.4-2.3,4.9-3.4,7.3-3.4a4.3,4.3,0,0,1,3.9,1.9,8.768,8.768,0,0,1,1.3,4.8V56.9h-7.8V34.5a3.361,3.361,0,0,0-.4-1.9q-.3-.6-1.5-.6a5.861,5.861,0,0,0-2.9,1.1V56.8Z" fill="#fff"/>
      <path id="Path_99959" data-name="Path 99959" d="M281.4,57.3a6.379,6.379,0,0,1-3.6-1.1,6.843,6.843,0,0,1-3.1-6.1,14.978,14.978,0,0,1,.2-2.2,10.548,10.548,0,0,1,.5-1.9,6.467,6.467,0,0,1,.9-1.6c.4-.5.8-.9,1.1-1.3a4.839,4.839,0,0,1,1.5-1.1,8.464,8.464,0,0,1,1.5-.9,14.368,14.368,0,0,1,1.7-.8c.6-.3,1.2-.5,1.6-.7a6.293,6.293,0,0,1,1.7-.6c.7-.3,1.2-.4,1.6-.6V35.6a5.2,5.2,0,0,0-.4-2.4,1.7,1.7,0,0,0-1.6-.8c-1.3,0-2.1.9-2.1,2.8l-.1,2.1-7.4-.3a3.4,3.4,0,0,1,.1-1c.2-3.2,1.1-5.5,2.9-7.1s4.1-2.3,7.4-2.3c2.9,0,5.2.8,6.6,2.4a9.46,9.46,0,0,1,2.3,6.6V49.4a68.989,68.989,0,0,0,.5,7.5h-7c-.4-2.2-.6-3.6-.7-4.3a7.522,7.522,0,0,1-2.1,3.4A6.829,6.829,0,0,1,281.4,57.3Zm3-5.7a3.739,3.739,0,0,0,1.5-.5A3.838,3.838,0,0,0,287,50V41.8a12.015,12.015,0,0,0-3.5,2.8,5.983,5.983,0,0,0-1.5,3.6,4.265,4.265,0,0,0,.6,2.4A1.828,1.828,0,0,0,284.4,51.6Z" fill="#fff"/>
    </g>
  </g>
</svg>
