<svg xmlns="http://www.w3.org/2000/svg" width="91.216" height="81.31" viewBox="0 0 91.216 81.31">
  <g id="noun-upload-7536647" transform="translate(-4.395 -9.345)">
    <path id="Path_37" data-name="Path 37" d="M32.234,72.367H25.25C7,72.367-2.445,50.426,10.148,37.176a20.779,20.779,0,0,1,11.988-6.25,25.228,25.228,0,0,1,47.539-7.578A13.039,13.039,0,0,1,81.894,35.157,19,19,0,0,1,90.05,66.813c-6.613,6.613-13.711,5.559-22.266,5.559v-4.8h8.848A14.2,14.2,0,0,0,87.507,44.286c-3.105-3.7-6.219-4.477-10.508-5.23.207-3.258.434-5.82-2.262-8.516-2.582-2.582-5.012-2.492-8.145-2.27-1.926-4.586-3.844-7.8-8.211-10.707a20.451,20.451,0,0,0-31.68,15.7L26.565,35.4l-2.141.1C10.615,36.192,4.08,53.048,13.9,62.868c5.5,5.5,11.238,4.7,18.328,4.7ZM48.285,39.051,33.457,52.582l3.227,3.543L47.61,46.156V88.285c0,3.16,4.8,3.16,4.8,0l0-42.125,10.926,9.969,3.227-3.543L51.727,39.051a2.4,2.4,0,0,0-3.441,0Z" fill-rule="evenodd"/>
  </g>
</svg>
