<?xml version="1.0" encoding="utf-8"?>
<!-- Generator: Adobe Illustrator 26.3.1, SVG Export Plug-In . SVG Version: 6.00 Build 0)  -->
<svg version="1.1" id="Layer_1" xmlns="http://www.w3.org/2000/svg" xmlns:xlink="http://www.w3.org/1999/xlink" x="0px" y="0px"
	 viewBox="0 0 469 94" style="enable-background:new 0 0 469 94;" xml:space="preserve">
<style type="text/css">
	.st0{fill:#010101;}
	.st1{enable-background:new    ;}
</style>
<g>
	<path class="st0" d="M80.5,11.8c0,1-16.3,1.8-36.5,1.8c-20.1,0-36.5-0.8-36.5-1.8S23.8,10,44,10S80.5,10.8,80.5,11.8z"/>
	<path class="st0" d="M81.2,27c0,2.1-16.7,3.7-37.2,3.7C23.4,30.7,6.8,29,6.8,27c0-2.1,16.7-3.7,37.2-3.7C64.6,23.3,81.2,25,81.2,27
		z"/>
	<path class="st0" d="M82,46c0,4.2-17,7.6-38,7.6S6,50.2,6,46s17-7.6,38-7.6S82,41.8,82,46z"/>
	<path class="st0" d="M82,72.6C82,78.9,65,84,44,84S6,78.9,6,72.6s17-11.4,38-11.4C65,61.2,82,66.3,82,72.6z"/>
</g>
<g class="st1">
	<path d="M121.4,86.1c-4.1,0-7.2-0.8-9.4-2.4c-2.2-1.6-3.8-3.9-4.6-7c-0.9-3.1-1.3-6.9-1.3-11.4V53.4c0-4.6,0.4-8.5,1.4-11.5
		c0.9-3.1,2.5-5.4,4.7-6.9c2.2-1.6,5.4-2.3,9.3-2.3c4.4,0,7.6,0.9,9.7,2.7s3.4,4.4,4.1,7.8c0.7,3.4,1,7.5,1,12.2v4.2h-20.5V70
		c0,2.1,0.2,3.8,0.6,5.1c0.4,1.3,1,2.3,1.9,2.9c0.9,0.6,2,0.9,3.4,0.9c1.4,0,2.5-0.3,3.3-1c0.8-0.7,1.3-1.7,1.5-3
		c0.3-1.3,0.4-2.8,0.4-4.5v-3.1h9.4v2c0,5.2-1.1,9.3-3.3,12.3C130.5,84.6,126.7,86.1,121.4,86.1z M115.6,54.3h11.1v-4.7
		c0-2.2-0.1-4-0.4-5.4c-0.2-1.5-0.7-2.6-1.5-3.3c-0.8-0.8-1.9-1.1-3.6-1.1c-1.6,0-2.7,0.4-3.6,1.1c-0.8,0.7-1.4,1.9-1.7,3.6
		c-0.3,1.7-0.5,4.1-0.5,7.1V54.3z"/>
	<path d="M145.5,25.6V15.5h9.6v10.1H145.5z M145.5,85.4v-52h9.6v52H145.5z"/>
	<path d="M165.6,85.3V12.4h9.6v43.5l14-22.5h10.1l-12.2,20.3L199,85.4h-9.6l-9.7-26.6l-4.4,6.7v19.9H165.6z"/>
	<path d="M213.4,86.1c-2,0-3.8-0.6-5.4-1.8c-1.6-1.2-2.8-2.7-3.7-4.5S203,76.1,203,74c0-3.2,0.5-6,1.6-8.2c1.1-2.2,2.6-4.1,4.5-5.6
		c1.9-1.5,4.1-2.9,6.6-4c2.5-1.1,5.1-2.2,7.9-3.3v-3.7c0-2.1-0.1-3.8-0.4-5.2c-0.2-1.4-0.7-2.4-1.5-3.1c-0.8-0.7-1.9-1-3.4-1
		c-1.3,0-2.4,0.3-3.2,0.9c-0.8,0.6-1.4,1.5-1.8,2.6c-0.4,1.1-0.5,2.4-0.5,3.9v2.6l-9.5-0.4c0.1-5.8,1.4-10,4-12.7
		c2.5-2.7,6.4-4.1,11.7-4.1c5.2,0,8.8,1.4,11,4.2c2.2,2.8,3.2,6.9,3.2,12.2v23.8c0,1.6,0,3.2,0.1,4.7s0.2,2.9,0.4,4.2
		c0.1,1.3,0.3,2.5,0.4,3.6h-8.8c-0.2-1-0.4-2.2-0.7-3.6s-0.5-2.8-0.6-4c-0.6,2-1.8,3.9-3.5,5.7C218.8,85.2,216.4,86.1,213.4,86.1z
		 M217.2,77.8c1,0,1.9-0.3,2.7-0.8c0.8-0.5,1.6-1.2,2.2-1.8c0.7-0.7,1.1-1.2,1.3-1.7V58.7c-1.5,0.8-2.9,1.7-4.2,2.5
		c-1.3,0.8-2.5,1.7-3.5,2.7c-1,0.9-1.8,2-2.3,3.1c-0.6,1.2-0.9,2.5-0.9,4c0,2.1,0.4,3.8,1.2,4.9C214.6,77.2,215.7,77.8,217.2,77.8z"
		/>
	<path d="M256.8,86.1c-4.1,0-7.2-0.8-9.4-2.4c-2.2-1.6-3.8-3.9-4.6-7c-0.9-3.1-1.3-6.9-1.3-11.4V53.4c0-4.6,0.5-8.5,1.4-11.5
		c0.9-3.1,2.5-5.4,4.7-6.9c2.2-1.6,5.4-2.3,9.3-2.3c4.4,0,7.6,0.9,9.7,2.7c2.1,1.8,3.4,4.4,4.1,7.8c0.7,3.4,1,7.5,1,12.2v4.2H251V70
		c0,2.1,0.2,3.8,0.6,5.1c0.4,1.3,1,2.3,1.9,2.9c0.9,0.6,2,0.9,3.4,0.9c1.4,0,2.5-0.3,3.3-1c0.8-0.7,1.3-1.7,1.5-3
		c0.3-1.3,0.4-2.8,0.4-4.5v-3.1h9.4v2c0,5.2-1.1,9.3-3.3,12.3C265.9,84.6,262.1,86.1,256.8,86.1z M251,54.3h11.1v-4.7
		c0-2.2-0.1-4-0.4-5.4c-0.2-1.5-0.7-2.6-1.5-3.3c-0.8-0.8-1.9-1.1-3.6-1.1c-1.6,0-2.7,0.4-3.6,1.1c-0.8,0.7-1.4,1.9-1.7,3.6
		c-0.3,1.7-0.5,4.1-0.5,7.1V54.3z"/>
	<path d="M298.9,86.1c-1.9,0-3.5-0.5-5-1.4c-1.5-0.9-2.7-2-3.8-3.1v3.8h-9.6V12.5h9.6v25c1.1-1.3,2.5-2.5,4.1-3.4
		c1.6-1,3.5-1.4,5.7-1.4c2.7,0,4.8,0.7,6.4,2.1c1.6,1.4,2.8,3.2,3.6,5.3c0.8,2.1,1.3,4.3,1.5,6.5c0.2,2.2,0.4,4.1,0.4,5.6v12.6
		c0,3.7-0.4,7.1-1.1,10.4s-2,5.9-3.9,7.9C305,85.1,302.3,86.1,298.9,86.1z M296.9,78.5c1.7,0,2.9-0.6,3.6-1.8c0.7-1.2,1.2-2.9,1.4-5
		c0.2-2.1,0.3-4.4,0.3-6.9V52.2c0-2.2-0.1-4.2-0.4-6c-0.2-1.8-0.8-3.3-1.5-4.4c-0.8-1.1-2-1.6-3.7-1.6c-1.3,0-2.4,0.3-3.6,0.8
		c-1.1,0.5-2.1,1.1-2.9,1.8v33.4c0.8,0.7,1.8,1.2,3,1.7S295.6,78.5,296.9,78.5z"/>
	<path d="M329.9,86.1c-2,0-3.8-0.6-5.4-1.8s-2.8-2.7-3.7-4.5s-1.3-3.8-1.3-5.8c0-3.2,0.5-6,1.6-8.2c1.1-2.2,2.6-4.1,4.5-5.6
		c1.9-1.5,4.1-2.9,6.6-4c2.5-1.1,5.1-2.2,7.9-3.3v-3.7c0-2.1-0.1-3.8-0.4-5.2c-0.2-1.4-0.7-2.4-1.5-3.1c-0.8-0.7-1.9-1-3.4-1
		c-1.3,0-2.4,0.3-3.2,0.9c-0.8,0.6-1.4,1.5-1.8,2.6c-0.4,1.1-0.5,2.4-0.5,3.9v2.6l-9.5-0.4c0.1-5.8,1.4-10,4-12.7
		c2.5-2.7,6.4-4.1,11.7-4.1c5.2,0,8.8,1.4,11,4.2c2.2,2.8,3.2,6.9,3.2,12.2v23.8c0,1.6,0,3.2,0.1,4.7s0.2,2.9,0.4,4.2
		c0.1,1.3,0.3,2.5,0.4,3.6h-8.8c-0.2-1-0.4-2.2-0.7-3.6s-0.5-2.8-0.6-4c-0.6,2-1.8,3.9-3.5,5.7C335.2,85.2,332.9,86.1,329.9,86.1z
		 M333.7,77.8c1,0,1.9-0.3,2.7-0.8c0.8-0.5,1.6-1.2,2.2-1.8c0.7-0.7,1.1-1.2,1.3-1.7V58.7c-1.5,0.8-2.9,1.7-4.2,2.5
		c-1.3,0.8-2.5,1.7-3.5,2.7c-1,0.9-1.8,2-2.3,3.1c-0.6,1.2-0.9,2.5-0.9,4c0,2.1,0.4,3.8,1.2,4.9C331,77.2,332.2,77.8,333.7,77.8z"/>
	<path d="M358.9,85.4v-52h9.6v5.1c1.7-1.6,3.7-3,5.8-4.1c2.1-1.1,4.4-1.7,6.9-1.7c2.1,0,3.7,0.5,4.8,1.6c1.1,1.1,1.9,2.4,2.3,4
		s0.7,3.3,0.7,5v42.1h-9.6V46c0-1.9-0.3-3.3-0.8-4.3c-0.5-1-1.7-1.5-3.3-1.5c-1.1,0-2.2,0.3-3.4,0.9c-1.2,0.6-2.3,1.4-3.4,2.3v41.9
		H358.9z"/>
	<path d="M407.7,86.1c-2,0-3.8-0.6-5.4-1.8c-1.6-1.2-2.8-2.7-3.7-4.5c-0.9-1.8-1.4-3.8-1.4-5.8c0-3.2,0.5-6,1.6-8.2
		c1.1-2.2,2.6-4.1,4.5-5.6c1.9-1.5,4.1-2.9,6.6-4c2.5-1.1,5.1-2.2,7.9-3.3v-3.7c0-2.1-0.1-3.8-0.4-5.2c-0.2-1.4-0.7-2.4-1.5-3.1
		c-0.8-0.7-1.9-1-3.4-1c-1.3,0-2.4,0.3-3.2,0.9c-0.8,0.6-1.4,1.5-1.8,2.6c-0.4,1.1-0.5,2.4-0.5,3.9v2.6l-9.5-0.4
		c0.1-5.8,1.4-10,4-12.7c2.5-2.7,6.4-4.1,11.7-4.1c5.2,0,8.8,1.4,11,4.2c2.2,2.8,3.2,6.9,3.2,12.2v23.8c0,1.6,0,3.2,0.1,4.7
		s0.2,2.9,0.4,4.2c0.1,1.3,0.3,2.5,0.4,3.6h-8.8c-0.2-1-0.4-2.2-0.7-3.6c-0.3-1.5-0.5-2.8-0.6-4c-0.6,2-1.8,3.9-3.5,5.7
		C413.1,85.2,410.7,86.1,407.7,86.1z M411.5,77.8c1,0,1.9-0.3,2.7-0.8c0.8-0.5,1.6-1.2,2.2-1.8c0.7-0.7,1.1-1.2,1.3-1.7V58.7
		c-1.5,0.8-2.9,1.7-4.2,2.5c-1.3,0.8-2.5,1.7-3.5,2.7s-1.8,2-2.3,3.1c-0.6,1.2-0.9,2.5-0.9,4c0,2.1,0.4,3.8,1.2,4.9
		C408.9,77.2,410,77.8,411.5,77.8z"/>
</g>
</svg>
