<svg xmlns="http://www.w3.org/2000/svg" width="92.108" height="71.089" viewBox="0 0 92.108 71.089">
  <g id="illus" transform="matrix(0.809, 0.588, -0.588, 0.809, 32.985, -10.435)">
    <g id="Group_10422" data-name="Group 10422" transform="translate(43.741 0)">
      <path id="Path_14604" data-name="Path 14604" d="M3.748,4.448,27.192,0,8.768,12.961,5.42,7.281,3.748,4.448,0,8.2l5.4-.889" transform="translate(1.715 5.273)" fill="none" stroke="#000" stroke-linecap="round" stroke-linejoin="round" stroke-width="0.5"/>
      <path id="Path_14605" data-name="Path 14605" d="M1.715,13.469l2.224-6.8,24.968-1.4L0,0,3.939,6.671" transform="translate(0 0)" fill="none" stroke="#000" stroke-linecap="round" stroke-linejoin="round" stroke-width="0.5"/>
    </g>
    <g id="freepik--Line--inject-68" transform="translate(48.486 65.543) rotate(-169)">
      <path id="Path_8076" data-name="Path 8076" d="M.13.532A.131.131,0,0,1,0,.43.129.129,0,0,1,.1.272,6.13,6.13,0,0,0,.958.009a.131.131,0,1,1,.1.244A6.2,6.2,0,0,1,.162.535Z" transform="translate(25.988 0.503)"/>
      <path id="Path_8077" data-name="Path 8077" d="M14.342,51.269a.154.154,0,0,1-.155-.139.139.139,0,0,1,.041-.1.16.16,0,0,1,.108-.047c.718-.035,1.452-.1,2.177-.186a.157.157,0,0,1,.174.125.135.135,0,0,1-.03.108.155.155,0,0,1-.1.055c-.734.093-1.477.154-2.2.186Zm4.354-.537a.154.154,0,0,1-.173-.129.149.149,0,0,1,.138-.161c.731-.148,1.443-.322,2.115-.519a.164.164,0,0,1,.161.024.139.139,0,0,1,.049.145.151.151,0,0,1-.117.106c-.681.2-1.4.377-2.143.528Zm4.183-1.254a.153.153,0,0,1-.14-.084.136.136,0,0,1-.006-.112.149.149,0,0,1,.081-.083,11.6,11.6,0,0,0,1.521-.769l.37-.232a.163.163,0,0,1,.215.041.135.135,0,0,1,.025.108.142.142,0,0,1-.066.092l-.373.232a11.85,11.85,0,0,1-1.555.792.178.178,0,0,1-.062.015Zm3.66-2.26a.167.167,0,0,1-.118-.049.141.141,0,0,1,.016-.206,12.78,12.78,0,0,0,1.527-1.451.167.167,0,0,1,.221-.017.14.14,0,0,1,.055.1.136.136,0,0,1-.037.105,13.409,13.409,0,0,1-1.555,1.477.157.157,0,0,1-.1.044ZM29.3,44.055a.151.151,0,0,1-.072-.017.141.141,0,0,1-.068-.194q.152-.273.28-.557a8.673,8.673,0,0,0,.466-1.335.161.161,0,0,1,.193-.11.149.149,0,0,1,.118.18,8.7,8.7,0,0,1-.482,1.378c-.087.194-.183.386-.289.58a.154.154,0,0,1-.137.075ZM30.383,40.1h0a.16.16,0,0,1-.108-.05.139.139,0,0,1-.038-.107c.028-.395.044-.812.044-1.274,0-.255,0-.508,0-.763a.14.14,0,0,1,.042-.105.161.161,0,0,1,.11-.046.159.159,0,0,1,.112.04.138.138,0,0,1,.047.1c0,.258,0,.514,0,.772,0,.47-.016.894-.044,1.294a.151.151,0,0,1-.155.136ZM30.324,36a.151.151,0,0,1-.155-.136c-.028-.58-.056-1.224-.056-1.857V33.8a.129.129,0,0,1,.043-.1.165.165,0,0,1,.268.107V34c0,.627.028,1.256.056,1.843a.14.14,0,0,1-.041.1A.16.16,0,0,1,30.33,36ZM43.618,34.21c-.283,0-.56,0-.824-.017a.161.161,0,0,1-.108-.047.14.14,0,0,1-.041-.1.141.141,0,0,1,.05-.1.162.162,0,0,1,.112-.038c.261,0,.535.017.812.017a13.29,13.29,0,0,0,1.365-.064.154.154,0,0,1,.173.129.149.149,0,0,1-.138.161q-.693.066-1.39.064ZM40.6,34.062h0c-.728-.052-1.468-.113-2.2-.183a.159.159,0,0,1-.106-.053.138.138,0,0,1-.034-.107.142.142,0,0,1,.056-.1.163.163,0,0,1,.115-.032c.725.07,1.462.133,2.177.186a.145.145,0,1,1,0,.29Zm6.531-.415a.163.163,0,0,1-.143-.084.141.141,0,0,1,.078-.192,3.428,3.428,0,0,0,1.583-1.253.161.161,0,0,1,.278,0,.137.137,0,0,1-.013.152A3.714,3.714,0,0,1,47.2,33.635.172.172,0,0,1,47.135,33.647Zm-10.9,0h-.019c-.725-.087-1.462-.186-2.177-.29a.158.158,0,0,1-.1-.057.138.138,0,0,1-.029-.108.157.157,0,0,1,.177-.122c.721.1,1.452.2,2.177.29a.149.149,0,0,1,.146.154.152.152,0,0,1-.165.136Zm-4.354-.63h-.028c-.718-.122-1.446-.255-2.161-.395a.149.149,0,0,1-.124-.174.159.159,0,0,1,.187-.116c.715.139,1.44.273,2.155.395a.157.157,0,0,1,.1.059.137.137,0,0,1,.026.109.156.156,0,0,1-.152.116Zm-4.307-.841h-.037c-.709-.157-1.431-.325-2.136-.5a.149.149,0,0,1-.117-.181.161.161,0,0,1,.194-.109c.706.174,1.421.342,2.13.5a.151.151,0,0,1,.118.177.154.154,0,0,1-.149.11Zm2.855-.273H30.4a.15.15,0,0,1-.131-.165,9.654,9.654,0,0,1,.55-2.022.159.159,0,0,1,.2-.087.143.143,0,0,1,.093.186,9.331,9.331,0,0,0-.529,1.961.153.153,0,0,1-.156.122Zm-7.112-.775a.12.12,0,0,1-.044,0c-.7-.189-1.412-.392-2.108-.6a.15.15,0,0,1-.091-.072.134.134,0,0,1-.008-.111.158.158,0,0,1,.2-.093c.693.206,1.4.409,2.1.6a.144.144,0,0,1,.106.18.153.153,0,0,1-.146.093Zm25.908-.746a.156.156,0,0,1-.152-.119,3.018,3.018,0,0,0-1.1-1.628.136.136,0,0,1,0-.2.163.163,0,0,1,.221,0,3.278,3.278,0,0,1,1.2,1.787.146.146,0,0,1-.121.171Zm-30.1-.508a.156.156,0,0,1-.053,0c-.709-.235-1.4-.479-2.068-.723a.145.145,0,0,1-.087-.189.15.15,0,0,1,.083-.08.166.166,0,0,1,.119,0c.659.244,1.353.485,2.056.72a.143.143,0,0,1,.1.183.157.157,0,0,1-.143.084Zm-4.092-1.518a.153.153,0,0,1-.062,0c-.684-.29-1.356-.58-1.993-.885a.146.146,0,0,1-.1-.122.142.142,0,0,1,.073-.135.165.165,0,0,1,.162,0c.622.29,1.3.58,1.981.87a.149.149,0,0,1,.123.176.159.159,0,0,1-.188.115Zm16.955-.252a.18.18,0,0,1-.093-.026.139.139,0,0,1-.031-.2,5.849,5.849,0,0,1,1.477-1.335l.162-.1a.162.162,0,0,1,.215.046.14.14,0,0,1-.05.2l-.152.09a5.576,5.576,0,0,0-1.4,1.265.164.164,0,0,1-.121.052Zm14.265-.58a.174.174,0,0,1-.075-.017c-.261-.131-.516-.252-.759-.366-.395-.18-.8-.348-1.213-.5a.149.149,0,0,1-.108-.113.14.14,0,0,1,.059-.141.165.165,0,0,1,.161-.016c.42.151.837.325,1.244.511.243.113.5.235.768.369a.143.143,0,0,1,.062.2.155.155,0,0,1-.137.07Zm-35.141-1.03a.148.148,0,0,1-.078-.02c-.65-.351-1.281-.717-1.866-1.091a.139.139,0,0,1-.032-.193.162.162,0,0,1,.2-.048c.591.369,1.216.734,1.866,1.082a.141.141,0,0,1,.071.162.154.154,0,0,1-.149.107Zm31.051-.456h-.037a16.754,16.754,0,0,0-2.149-.331.148.148,0,0,1-.14-.157.156.156,0,0,1,.171-.131,16.878,16.878,0,0,1,2.177.337.149.149,0,0,1,.138.161.154.154,0,0,1-.173.129Zm-6.546-.093a.157.157,0,0,1-.152-.113.145.145,0,0,1,.115-.174,12.079,12.079,0,0,1,1.661-.247c.18,0,.364-.026.544-.035a.156.156,0,0,1,.115.034.136.136,0,0,1,.05.1.149.149,0,0,1-.146.151c-.18,0-.358.023-.535.038a11.785,11.785,0,0,0-1.614.238ZM7.467,24.205a.163.163,0,0,1-.1-.029c-.591-.432-1.157-.885-1.682-1.341a.138.138,0,0,1,0-.206.167.167,0,0,1,.221,0c.519.453,1.079.9,1.664,1.326a.139.139,0,0,1,.025.2.156.156,0,0,1-.127.038Zm-3.209-2.8a.167.167,0,0,1-.118-.049,18,18,0,0,1-1.365-1.631.142.142,0,0,1,.037-.2.169.169,0,0,1,.218.038,17.462,17.462,0,0,0,1.362,1.6.138.138,0,0,1,0,.2.163.163,0,0,1-.131.038ZM1.769,18.031a.154.154,0,0,1-.137-.081,14.177,14.177,0,0,1-.88-1.9.146.146,0,0,1,.1-.186.158.158,0,0,1,.2.09,13.83,13.83,0,0,0,.865,1.866.141.141,0,0,1-.068.194.152.152,0,0,1-.072.009ZM.348,14.154A.15.15,0,0,1,.2,14.032c-.031-.154-.056-.308-.081-.464A10.592,10.592,0,0,1,0,12.024v-.061a.151.151,0,0,1,.155-.145.151.151,0,0,1,.155.145v.058a10.031,10.031,0,0,0,.112,1.5c.025.154.05.3.078.456a.146.146,0,0,1-.124.168Zm.016-4.085H.336A.146.146,0,0,1,.212,9.9,11.676,11.676,0,0,1,.8,7.9.165.165,0,0,1,1,7.811.142.142,0,0,1,1.092,8,11.22,11.22,0,0,0,.516,9.953a.151.151,0,0,1-.168.116ZM1.881,6.236a.194.194,0,0,1-.078-.02.143.143,0,0,1-.056-.2A11.4,11.4,0,0,1,3.038,4.323a.164.164,0,0,1,.206,0,.138.138,0,0,1,.027.191A11.473,11.473,0,0,0,2.028,6.163a.159.159,0,0,1-.156.073Zm2.864-3.09a.155.155,0,0,1-.146-.1.139.139,0,0,1,.05-.161A11.787,11.787,0,0,1,6.531,1.776a.162.162,0,0,1,.21.065.142.142,0,0,1-.07.2A11.655,11.655,0,0,0,4.839,3.116a.16.16,0,0,1-.1.029Zm19.1-1.808h0a17.9,17.9,0,0,1-2.211-.183A.149.149,0,0,1,21.5.989a.156.156,0,0,1,.177-.125,17.3,17.3,0,0,0,2.177.18.145.145,0,1,1,0,.29ZM8.627,1.262a.157.157,0,0,1-.18-.122A.149.149,0,0,1,8.577.972,20.007,20.007,0,0,1,10.723.45a.165.165,0,0,1,.118.022.145.145,0,0,1,.066.094.132.132,0,0,1-.022.109.151.151,0,0,1-.1.06,20.083,20.083,0,0,0-2.112.514ZM19.486.807h-.028C18.79.691,18.034.56,17.281.461A.147.147,0,0,1,17.151.3a.14.14,0,0,1,.059-.1.161.161,0,0,1,.116-.028c.746.1,1.505.232,2.177.348a.146.146,0,0,1,.124.168.154.154,0,0,1-.14.125ZM12.931.432A.152.152,0,0,1,12.766.3a.149.149,0,0,1,.146-.154c.395-.041.818-.078,1.244-.11.274-.02.563-.032.858-.032h.1a.15.15,0,0,1,.152.148.157.157,0,0,1-.155.142h-.1a7.912,7.912,0,0,0-.837.029c-.429.032-.846.07-1.244.113Z" transform="translate(0 0)"/>
      <path id="Path_8078" data-name="Path 8078" d="M1.041.327h0C.728.314.418.29.119.261A.129.129,0,0,1,0,.119.126.126,0,0,1,.143,0c.3.029.6.05.912.063a.131.131,0,1,1,0,.263Z" transform="translate(10.927 50.947)"/>
      <g id="Group_9982" data-name="Group 9982" transform="translate(0 0)" opacity="0.6">
        <path id="Path_8079" data-name="Path 8079" d="M.13.532A.131.131,0,0,1,0,.43.129.129,0,0,1,.1.272,6.13,6.13,0,0,0,.958.009a.131.131,0,1,1,.1.244A6.2,6.2,0,0,1,.162.535Z" transform="translate(25.988 0.503)"/>
        <path id="Path_8080" data-name="Path 8080" d="M14.342,51.269a.154.154,0,0,1-.155-.139.139.139,0,0,1,.041-.1.16.16,0,0,1,.108-.047c.718-.035,1.452-.1,2.177-.186a.157.157,0,0,1,.174.125.135.135,0,0,1-.03.108.155.155,0,0,1-.1.055c-.734.093-1.477.154-2.2.186Zm4.354-.537a.154.154,0,0,1-.173-.129.149.149,0,0,1,.138-.161c.731-.148,1.443-.322,2.115-.519a.164.164,0,0,1,.161.024.139.139,0,0,1,.049.145.151.151,0,0,1-.117.106c-.681.2-1.4.377-2.143.528Zm4.183-1.254a.153.153,0,0,1-.14-.084.136.136,0,0,1-.006-.112.149.149,0,0,1,.081-.083,11.6,11.6,0,0,0,1.521-.769l.37-.232a.163.163,0,0,1,.215.041.135.135,0,0,1,.025.108.142.142,0,0,1-.066.092l-.373.232a11.85,11.85,0,0,1-1.555.792.178.178,0,0,1-.062.015Zm3.66-2.26a.167.167,0,0,1-.118-.049.141.141,0,0,1,.016-.206,12.78,12.78,0,0,0,1.527-1.451.167.167,0,0,1,.221-.017.14.14,0,0,1,.055.1.136.136,0,0,1-.037.105,13.409,13.409,0,0,1-1.555,1.477.157.157,0,0,1-.1.044ZM29.3,44.055a.151.151,0,0,1-.072-.017.141.141,0,0,1-.068-.194q.152-.273.28-.557a8.673,8.673,0,0,0,.466-1.335.161.161,0,0,1,.193-.11.149.149,0,0,1,.118.18,8.7,8.7,0,0,1-.482,1.378c-.087.194-.183.386-.289.58a.154.154,0,0,1-.137.075ZM30.383,40.1h0a.16.16,0,0,1-.108-.05.139.139,0,0,1-.038-.107c.028-.395.044-.812.044-1.274,0-.255,0-.508,0-.763a.14.14,0,0,1,.042-.105.161.161,0,0,1,.11-.046.159.159,0,0,1,.112.04.138.138,0,0,1,.047.1c0,.258,0,.514,0,.772,0,.47-.016.894-.044,1.294a.151.151,0,0,1-.155.136ZM30.324,36a.151.151,0,0,1-.155-.136c-.028-.58-.056-1.224-.056-1.857V33.8a.129.129,0,0,1,.043-.1.165.165,0,0,1,.268.107V34c0,.627.028,1.256.056,1.843a.14.14,0,0,1-.041.1A.16.16,0,0,1,30.33,36ZM43.618,34.21c-.283,0-.56,0-.824-.017a.161.161,0,0,1-.108-.047.14.14,0,0,1-.041-.1.141.141,0,0,1,.05-.1.162.162,0,0,1,.112-.038c.261,0,.535.017.812.017a13.29,13.29,0,0,0,1.365-.064.154.154,0,0,1,.173.129.149.149,0,0,1-.138.161q-.693.066-1.39.064ZM40.6,34.062h0c-.728-.052-1.468-.113-2.2-.183a.159.159,0,0,1-.106-.053.138.138,0,0,1-.034-.107.142.142,0,0,1,.056-.1.163.163,0,0,1,.115-.032c.725.07,1.462.133,2.177.186a.145.145,0,1,1,0,.29Zm6.531-.415a.163.163,0,0,1-.143-.084.141.141,0,0,1,.078-.192,3.428,3.428,0,0,0,1.583-1.253.161.161,0,0,1,.278,0,.137.137,0,0,1-.013.152A3.714,3.714,0,0,1,47.2,33.635.172.172,0,0,1,47.135,33.647Zm-10.9,0h-.019c-.725-.087-1.462-.186-2.177-.29a.158.158,0,0,1-.1-.057.138.138,0,0,1-.029-.108.157.157,0,0,1,.177-.122c.721.1,1.452.2,2.177.29a.149.149,0,0,1,.146.154.152.152,0,0,1-.165.136Zm-4.354-.63h-.028c-.718-.122-1.446-.255-2.161-.395a.149.149,0,0,1-.124-.174.159.159,0,0,1,.187-.116c.715.139,1.44.273,2.155.395a.157.157,0,0,1,.1.059.137.137,0,0,1,.026.109.156.156,0,0,1-.152.116Zm-4.307-.841h-.037c-.709-.157-1.431-.325-2.136-.5a.149.149,0,0,1-.117-.181.161.161,0,0,1,.194-.109c.706.174,1.421.342,2.13.5a.151.151,0,0,1,.118.177.154.154,0,0,1-.149.11Zm2.855-.273H30.4a.15.15,0,0,1-.131-.165,9.654,9.654,0,0,1,.55-2.022.159.159,0,0,1,.2-.087.143.143,0,0,1,.093.186,9.331,9.331,0,0,0-.529,1.961.153.153,0,0,1-.156.122Zm-7.112-.775a.12.12,0,0,1-.044,0c-.7-.189-1.412-.392-2.108-.6a.15.15,0,0,1-.091-.072.134.134,0,0,1-.008-.111.158.158,0,0,1,.2-.093c.693.206,1.4.409,2.1.6a.144.144,0,0,1,.106.18.153.153,0,0,1-.146.093Zm25.908-.746a.156.156,0,0,1-.152-.119,3.018,3.018,0,0,0-1.1-1.628.136.136,0,0,1,0-.2.163.163,0,0,1,.221,0,3.278,3.278,0,0,1,1.2,1.787.146.146,0,0,1-.121.171Zm-30.1-.508a.156.156,0,0,1-.053,0c-.709-.235-1.4-.479-2.068-.723a.145.145,0,0,1-.087-.189.15.15,0,0,1,.083-.08.166.166,0,0,1,.119,0c.659.244,1.353.485,2.056.72a.143.143,0,0,1,.1.183.157.157,0,0,1-.143.084Zm-4.092-1.518a.153.153,0,0,1-.062,0c-.684-.29-1.356-.58-1.993-.885a.146.146,0,0,1-.1-.122.142.142,0,0,1,.073-.135.165.165,0,0,1,.162,0c.622.29,1.3.58,1.981.87a.149.149,0,0,1,.123.176.159.159,0,0,1-.188.115Zm16.955-.252a.18.18,0,0,1-.093-.026.139.139,0,0,1-.031-.2,5.849,5.849,0,0,1,1.477-1.335l.162-.1a.162.162,0,0,1,.215.046.14.14,0,0,1-.05.2l-.152.09a5.576,5.576,0,0,0-1.4,1.265.164.164,0,0,1-.121.052Zm14.265-.58a.174.174,0,0,1-.075-.017c-.261-.131-.516-.252-.759-.366-.395-.18-.8-.348-1.213-.5a.149.149,0,0,1-.108-.113.14.14,0,0,1,.059-.141.165.165,0,0,1,.161-.016c.42.151.837.325,1.244.511.243.113.5.235.768.369a.143.143,0,0,1,.062.2.155.155,0,0,1-.137.07Zm-35.141-1.03a.148.148,0,0,1-.078-.02c-.65-.351-1.281-.717-1.866-1.091a.139.139,0,0,1-.032-.193.162.162,0,0,1,.2-.048c.591.369,1.216.734,1.866,1.082a.141.141,0,0,1,.071.162.154.154,0,0,1-.149.107Zm31.051-.456h-.037a16.754,16.754,0,0,0-2.149-.331.148.148,0,0,1-.14-.157.156.156,0,0,1,.171-.131,16.878,16.878,0,0,1,2.177.337.149.149,0,0,1,.138.161.154.154,0,0,1-.173.129Zm-6.546-.093a.157.157,0,0,1-.152-.113.145.145,0,0,1,.115-.174,12.079,12.079,0,0,1,1.661-.247c.18,0,.364-.026.544-.035a.156.156,0,0,1,.115.034.136.136,0,0,1,.05.1.149.149,0,0,1-.146.151c-.18,0-.358.023-.535.038a11.785,11.785,0,0,0-1.614.238ZM7.467,24.205a.163.163,0,0,1-.1-.029c-.591-.432-1.157-.885-1.682-1.341a.138.138,0,0,1,0-.206.167.167,0,0,1,.221,0c.519.453,1.079.9,1.664,1.326a.139.139,0,0,1,.025.2.156.156,0,0,1-.127.038Zm-3.209-2.8a.167.167,0,0,1-.118-.049,18,18,0,0,1-1.365-1.631.142.142,0,0,1,.037-.2.169.169,0,0,1,.218.038,17.462,17.462,0,0,0,1.362,1.6.138.138,0,0,1,0,.2.163.163,0,0,1-.131.038ZM1.769,18.031a.154.154,0,0,1-.137-.081,14.177,14.177,0,0,1-.88-1.9.146.146,0,0,1,.1-.186.158.158,0,0,1,.2.09,13.83,13.83,0,0,0,.865,1.866.141.141,0,0,1-.068.194.152.152,0,0,1-.072.009ZM.348,14.154A.15.15,0,0,1,.2,14.032c-.031-.154-.056-.308-.081-.464A10.592,10.592,0,0,1,0,12.024v-.061a.151.151,0,0,1,.155-.145.151.151,0,0,1,.155.145v.058a10.031,10.031,0,0,0,.112,1.5c.025.154.05.3.078.456a.146.146,0,0,1-.124.168Zm.016-4.085H.336A.146.146,0,0,1,.212,9.9,11.676,11.676,0,0,1,.8,7.9.165.165,0,0,1,1,7.811.142.142,0,0,1,1.092,8,11.22,11.22,0,0,0,.516,9.953a.151.151,0,0,1-.168.116ZM1.881,6.236a.194.194,0,0,1-.078-.02.143.143,0,0,1-.056-.2A11.4,11.4,0,0,1,3.038,4.323a.164.164,0,0,1,.206,0,.138.138,0,0,1,.027.191A11.473,11.473,0,0,0,2.028,6.163a.159.159,0,0,1-.156.073Zm2.864-3.09a.155.155,0,0,1-.146-.1.139.139,0,0,1,.05-.161A11.787,11.787,0,0,1,6.531,1.776a.162.162,0,0,1,.21.065.142.142,0,0,1-.07.2A11.655,11.655,0,0,0,4.839,3.116a.16.16,0,0,1-.1.029Zm19.1-1.808h0a17.9,17.9,0,0,1-2.211-.183A.149.149,0,0,1,21.5.989a.156.156,0,0,1,.177-.125,17.3,17.3,0,0,0,2.177.18.145.145,0,1,1,0,.29ZM8.627,1.262a.157.157,0,0,1-.18-.122A.149.149,0,0,1,8.577.972,20.007,20.007,0,0,1,10.723.45a.165.165,0,0,1,.118.022.145.145,0,0,1,.066.094.132.132,0,0,1-.022.109.151.151,0,0,1-.1.06,20.083,20.083,0,0,0-2.112.514ZM19.486.807h-.028C18.79.691,18.034.56,17.281.461A.147.147,0,0,1,17.151.3a.14.14,0,0,1,.059-.1.161.161,0,0,1,.116-.028c.746.1,1.505.232,2.177.348a.146.146,0,0,1,.124.168.154.154,0,0,1-.14.125ZM12.931.432A.152.152,0,0,1,12.766.3a.149.149,0,0,1,.146-.154c.395-.041.818-.078,1.244-.11.274-.02.563-.032.858-.032h.1a.15.15,0,0,1,.152.148.157.157,0,0,1-.155.142h-.1a7.912,7.912,0,0,0-.837.029c-.429.032-.846.07-1.244.113Z" transform="translate(0 0)"/>
        <path id="Path_8081" data-name="Path 8081" d="M1.041.327h0C.728.314.418.29.119.261A.129.129,0,0,1,0,.119.126.126,0,0,1,.143,0c.3.029.6.05.912.063a.131.131,0,1,1,0,.263Z" transform="translate(10.927 50.947)"/>
      </g>
    </g>
  </g>
</svg>
