<svg xmlns="http://www.w3.org/2000/svg" width="542.102" height="481.549" viewBox="0 0 542.102 481.549">
  <g id="Group_21" data-name="Group 21" transform="translate(-3.949 -7.451)">
    <g id="Group_19" data-name="Group 19">
      <g id="Group_18" data-name="Group 18">
        <path id="bg-01" d="M427.9,101.354c13.784,10.9,91.14,72.007,105.645,87.643a19.011,19.011,0,0,0,1.44,1.44c7.406,7.1,63.469,63.263,65.526,122.515a49.792,49.792,0,0,1-.411,7.818c-2.16,15.224-11.213,76.122-19.236,90.009a45.839,45.839,0,0,0-4.012,9.258c-6.481,20.162-26.025,77.665-42.484,93.095a51.619,51.619,0,0,0-6.275,7.1c-6.892,9.258-31.683,30.243-112.845,23.557,0,0-127.452-5.452-159.958-2.057a54.544,54.544,0,0,1-7.1.206c-16.973-.823-79.619-5.143-101.838-22.425a39.508,39.508,0,0,0-7.1-4.526c-14.3-7.1-61.823-35.695-79.1-111.1a33.02,33.02,0,0,1-.926-6.275c-1.029-12.447-2.983-58.428,8.949-158.518a31.97,31.97,0,0,0,.309-4.423c.309-14.2,5.246-99.987,77.87-120.355a48,48,0,0,0,8.332-3.189C182.354,97.034,344.575,19.884,424.092,97.96,425.223,98.988,426.561,100.223,427.9,101.354Z" transform="translate(-54.484 -56.078)" fill="#f9f9f9"/>
        <g id="Group_17" data-name="Group 17" transform="translate(-21.234 -60.89)" opacity="0.716">
          <g id="Group_16" data-name="Group 16" transform="translate(242.606 268.971)">
            <path id="Path_35" data-name="Path 35" d="M1210.367,121.786a5.147,5.147,0,0,0-3.782-1.952,4.637,4.637,0,0,0-3.352,1.8,17.775,17.775,0,0,0-3.775,5.783,72.557,72.557,0,0,0-2.486,10.6c-.516,2.916-1.768,4.623-3.726,5.065-6.157,1.394-8.846,6.034-10.89,10.283-1.522,3.168-4.623,4.666-7.717,3.726-2.99-.909-4.66-4.045-3.972-7.459.436-2.161.982-4.346,1.5-6.464.565-2.271,1.148-4.616,1.609-6.968.27-1.363-.473-3.953-2-4.6-1.7-.718-3.91.755-4.543,1.222a6.175,6.175,0,0,0-1.744,2.419c-.1.2-.2.405-.294.6a57.72,57.72,0,0,0-6.44,20.866c-.479,4.162-3.389,6.845-7.066,6.532-4.291-.362-8.864-.749-13.462-1.062-1.627-.11-4.494-.731-5.427-3.665-3-9.485-10.731-12.615-17.127-14.279-3.88-1.013-6.1.16-7.41,3.91-1.609,4.586-4.537,6.765-9.2,6.845-7.023.123-12.99,2.634-17.25,7.262s-5.15,9.411-2.762,14.66c1.682,3.689,2.885,5.617,4.8,5.887s3.628-1.271,6.139-4.205c6.335-7.385,12.861-11.2,20.535-12.014a6.533,6.533,0,0,1,5.193,1.657,5.611,5.611,0,0,1,1.768,4.4c-.123,2.842-.982,6.624-4.365,8.459a19.033,19.033,0,0,0-8.5,9.706c-1.762,4.113-3.26,8.423-4.53,12.13-.847,2.474-2.732,3.886-6.126,4.58a6,6,0,0,1-6.323-2.726c-.246-.35-.461-.737-.694-1.148-.221-.387-.442-.786-.706-1.185-1.277-1.9-2.6-2.861-4.064-2.947-1.437-.08-2.805.688-4.205,2.339a12.717,12.717,0,0,0-2.087,4.426l-.037.123c-.326,1.007-.6,2.032-.872,3.026-.988,3.677-1.928,7.152-4.991,9.564a6.945,6.945,0,0,0-2.142,3.616,4.192,4.192,0,0,0,1.062,3.757c4.365,3.824,12.916,3.413,16.642-.8,2.548-2.879,5.058-3.788,7.68-2.769,4.647,1.8,7.318,4.273,8.152,7.569.331,1.314-.276,3.2-.817,4.868-.08.264-.166.516-.245.774a4.533,4.533,0,0,1-1.05,1.369,12.837,12.837,0,0,0-.958,1.093,3.931,3.931,0,0,0-.835,3.825,3.476,3.476,0,0,0,2.885,2.056,24.778,24.778,0,0,0,8.355.282,10.338,10.338,0,0,0,6.8-4.254,9.77,9.77,0,0,0,1.51-7.428,48.5,48.5,0,0,0-4.076-12.063c-1.486-3.069-1.547-7.287,1.829-9.313a33.142,33.142,0,0,1,15.255-4.979c1.056-.055,2.443.018,3.07.749s.491,2.167.258,3.229a76.964,76.964,0,0,1-2.234,8.122c-1.185,3.487.086,6.483,3.315,7.815a42.77,42.77,0,0,0,7.471,2.069c.62.129,1.234.264,1.848.4a4.873,4.873,0,0,0,6.114-3.732c.4-1.6.663-3.223.921-4.794.289-1.75.559-3.407.995-5.028.307-1.148,1.025-3.831,2.2-4.61a19.106,19.106,0,0,1,18.828-1.743,4.672,4.672,0,0,1,2.142,3.143c.018,10.24-2.474,18.668-7.637,25.753-3.426,4.708-7.9,7.471-14.076,8.693-7.011,1.387-13.984,3.419-20.725,5.39-1.786.516-3.573,1.037-5.353,1.547a4.958,4.958,0,0,0-3.383,2.535,5.081,5.081,0,0,0,.245,4.291c4.985,11.167,9.632,20.289,16.1,28.527a82.094,82.094,0,0,0,10.6,10.927,18.815,18.815,0,0,0,12.793,4.561c.632,0,1.277-.025,1.94-.074a43.538,43.538,0,0,0,20.1-6.968c.823-.51,3.094-2.382,2.793-4.217a6.007,6.007,0,0,0-3.383-3.861,54.656,54.656,0,0,1-18.232-13.309c-2.511-2.75-2.633-5.611-.38-8.508a20.386,20.386,0,0,1,3.475-3.4c2.99-2.37,6.587-2.032,9.386.884a26.44,26.44,0,0,0,6.931,5.691c3.652,1.823,7.477,3.4,11.179,4.923,1.792.737,3.64,1.5,5.445,2.278a3.8,3.8,0,0,0,3.1.172,4.462,4.462,0,0,0,2.179-2.787c1.4-4.027,4.107-7.465,8.263-10.516a41.037,41.037,0,0,1,21.75-7.852c2.9-.2,4.39-1.43,5.163-4.23A139.832,139.832,0,0,0,1248.3,215.6v-.018C1247.838,179.337,1235.076,147.777,1210.367,121.786Z" transform="translate(-1067.755 -119.832)" fill="#e8e8e8"/>
          </g>
          <g id="Group_15" data-name="Group 15" transform="translate(152.943 172.47)">
            <g id="Group_13" data-name="Group 13" transform="translate(0 57.29)">
              <g id="Group_11" data-name="Group 11" transform="translate(48.546 95.247)">
                <path id="Path_31" data-name="Path 31" d="M318.01,393.473c-.14-1.326-.31-2.981-.59-4.623a19.088,19.088,0,0,0-1.138-3.79,6.758,6.758,0,0,0-6.016-4.629,4.42,4.42,0,0,0-.487.024c-2.75.256-4.891,2.561-5.6,6.01-.706,3.48-1.612,7.257-2.768,11.546-.785,2.92-3.133,3.741-5.323,4.155-3.693.693-7.251,1.46-10.171,3.1-3.583,2-5.7,4.879-5.974,8.1-.28,3.37,1.448,6.747,4.879,9.5,4.234,3.413,8.924,4.9,13.554,4.313,4.666-.59,8.863-3.242,12.155-7.665,4.8-6.448,7.142-14.132,7.6-24.887C318.095,394.288,318.058,393.9,318.01,393.473Zm-1.588,2.312c-.931,8.8-2.476,15.957-7,22.289-3.346,4.672-7.927,7.111-12.885,7.111a17.589,17.589,0,0,1-8.164-2.135c-4.38-2.3-6.479-5.542-6.229-9.642.3-4.855,4.21-6.8,7.13-7.848a18.732,18.732,0,0,1,6.363-1.271h.085a6.829,6.829,0,0,0,6.868-4.684,79.09,79.09,0,0,0,2.567-7.89q.374-1.323.766-2.628a5.944,5.944,0,0,0,.152-1,5.336,5.336,0,0,1,.566-2.227c.7-1.253,1.855-2.8,3.346-3.109,1.612-.322,3.693,1.551,4.1,2.859.718,2.342,1.235,4.757,1.734,7.093.189.882.377,1.764.578,2.64l.049.219Z" transform="translate(-279.917 -380.43)" fill="#cbcbcb"/>
              </g>
              <g id="Group_12" data-name="Group 12">
                <path id="Path_32" data-name="Path 32" d="M318.01,393.473c-.14-1.326-.31-2.981-.59-4.623a19.088,19.088,0,0,0-1.138-3.79,6.758,6.758,0,0,0-6.016-4.629,4.42,4.42,0,0,0-.487.024c-2.75.256-4.891,2.561-5.6,6.01-.706,3.48-1.612,7.257-2.768,11.546-.785,2.92-3.133,3.741-5.323,4.155-3.693.693-7.251,1.46-10.171,3.1-3.583,2-5.7,4.879-5.974,8.1-.28,3.37,1.448,6.747,4.879,9.5,4.234,3.413,8.924,4.9,13.554,4.313,4.666-.59,8.863-3.242,12.155-7.665,4.8-6.448,7.142-14.132,7.6-24.887C318.095,394.288,318.058,393.9,318.01,393.473Zm-1.588,2.312c-.931,8.8-2.476,15.957-7,22.289-3.346,4.672-7.927,7.111-12.885,7.111a17.589,17.589,0,0,1-8.164-2.135c-4.38-2.3-6.479-5.542-6.229-9.642.3-4.855,4.21-6.8,7.13-7.848a18.732,18.732,0,0,1,6.363-1.271h.085a6.829,6.829,0,0,0,6.868-4.684,79.09,79.09,0,0,0,2.567-7.89q.374-1.323.766-2.628a5.944,5.944,0,0,0,.152-1,5.336,5.336,0,0,1,.566-2.227c.7-1.253,1.855-2.8,3.346-3.109,1.612-.322,3.693,1.551,4.1,2.859.718,2.342,1.235,4.757,1.734,7.093.189.882.377,1.764.578,2.64l.049.219Z" transform="translate(-231.37 -285.183)" fill="#cbcbcb"/>
                <path id="Path_33" data-name="Path 33" d="M286.755,332.151c-.14-1.326-.31-2.981-.59-4.623a19.084,19.084,0,0,0-1.138-3.79,6.757,6.757,0,0,0-6.016-4.629,4.418,4.418,0,0,0-.487.024c-2.75.255-4.891,2.561-5.6,6.01-.706,3.48-1.612,7.257-2.768,11.546-.785,2.92-3.133,3.741-5.323,4.155-3.693.694-7.251,1.46-10.171,3.1-3.583,2-5.7,4.879-5.974,8.1-.28,3.37,1.448,6.746,4.879,9.5,4.234,3.413,8.924,4.9,13.554,4.313,4.666-.59,8.863-3.242,12.155-7.665,4.8-6.448,7.142-14.132,7.6-24.887C286.84,332.966,286.8,332.577,286.755,332.151Zm-1.588,2.312c-.931,8.8-2.476,15.957-7,22.289-3.346,4.672-7.927,7.111-12.885,7.111a17.588,17.588,0,0,1-8.164-2.135c-4.38-2.3-6.479-5.542-6.229-9.642.3-4.855,4.21-6.8,7.13-7.848a18.731,18.731,0,0,1,6.363-1.271h.085a6.829,6.829,0,0,0,6.868-4.684,79.053,79.053,0,0,0,2.567-7.89q.374-1.323.767-2.628a5.95,5.95,0,0,0,.152-1,5.337,5.337,0,0,1,.566-2.227c.7-1.253,1.855-2.8,3.346-3.109,1.612-.322,3.693,1.551,4.1,2.859.718,2.342,1.235,4.757,1.734,7.093.189.882.377,1.764.578,2.64l.049.219Zm1.588-2.312c-.14-1.326-.31-2.981-.59-4.623a19.084,19.084,0,0,0-1.138-3.79,6.757,6.757,0,0,0-6.016-4.629,4.418,4.418,0,0,0-.487.024c-2.75.255-4.891,2.561-5.6,6.01-.706,3.48-1.612,7.257-2.768,11.546-.785,2.92-3.133,3.741-5.323,4.155-3.693.694-7.251,1.46-10.171,3.1-3.583,2-5.7,4.879-5.974,8.1-.28,3.37,1.448,6.746,4.879,9.5,4.234,3.413,8.924,4.9,13.554,4.313,4.666-.59,8.863-3.242,12.155-7.665,4.8-6.448,7.142-14.132,7.6-24.887C286.84,332.966,286.8,332.577,286.755,332.151Zm-1.588,2.312c-.931,8.8-2.476,15.957-7,22.289-3.346,4.672-7.927,7.111-12.885,7.111a17.588,17.588,0,0,1-8.164-2.135c-4.38-2.3-6.479-5.542-6.229-9.642.3-4.855,4.21-6.8,7.13-7.848a18.731,18.731,0,0,1,6.363-1.271h.085a6.829,6.829,0,0,0,6.868-4.684,79.053,79.053,0,0,0,2.567-7.89q.374-1.323.767-2.628a5.95,5.95,0,0,0,.152-1,5.337,5.337,0,0,1,.566-2.227c.7-1.253,1.855-2.8,3.346-3.109,1.612-.322,3.693,1.551,4.1,2.859.718,2.342,1.235,4.757,1.734,7.093.189.882.377,1.764.578,2.64l.049.219Zm1.588-2.312c-.14-1.326-.31-2.981-.59-4.623a19.084,19.084,0,0,0-1.138-3.79,6.757,6.757,0,0,0-6.016-4.629,4.418,4.418,0,0,0-.487.024c-2.75.255-4.891,2.561-5.6,6.01-.706,3.48-1.612,7.257-2.768,11.546-.785,2.92-3.133,3.741-5.323,4.155-3.693.694-7.251,1.46-10.171,3.1-3.583,2-5.7,4.879-5.974,8.1-.28,3.37,1.448,6.746,4.879,9.5,4.234,3.413,8.924,4.9,13.554,4.313,4.666-.59,8.863-3.242,12.155-7.665,4.8-6.448,7.142-14.132,7.6-24.887C286.84,332.966,286.8,332.577,286.755,332.151Zm-1.588,2.312c-.931,8.8-2.476,15.957-7,22.289-3.346,4.672-7.927,7.111-12.885,7.111a17.588,17.588,0,0,1-8.164-2.135c-4.38-2.3-6.479-5.542-6.229-9.642.3-4.855,4.21-6.8,7.13-7.848a18.731,18.731,0,0,1,6.363-1.271h.085a6.829,6.829,0,0,0,6.868-4.684,79.053,79.053,0,0,0,2.567-7.89q.374-1.323.767-2.628a5.95,5.95,0,0,0,.152-1,5.337,5.337,0,0,1,.566-2.227c.7-1.253,1.855-2.8,3.346-3.109,1.612-.322,3.693,1.551,4.1,2.859.718,2.342,1.235,4.757,1.734,7.093.189.882.377,1.764.578,2.64l.049.219Zm1.588-2.312c-.14-1.326-.31-2.981-.59-4.623a19.084,19.084,0,0,0-1.138-3.79,6.757,6.757,0,0,0-6.016-4.629,4.418,4.418,0,0,0-.487.024c-2.75.255-4.891,2.561-5.6,6.01-.706,3.48-1.612,7.257-2.768,11.546-.785,2.92-3.133,3.741-5.323,4.155-3.693.694-7.251,1.46-10.171,3.1-3.583,2-5.7,4.879-5.974,8.1-.28,3.37,1.448,6.746,4.879,9.5,4.234,3.413,8.924,4.9,13.554,4.313,4.666-.59,8.863-3.242,12.155-7.665,4.8-6.448,7.142-14.132,7.6-24.887C286.84,332.966,286.8,332.577,286.755,332.151Zm-1.588,2.312c-.931,8.8-2.476,15.957-7,22.289-3.346,4.672-7.927,7.111-12.885,7.111a17.588,17.588,0,0,1-8.164-2.135c-4.38-2.3-6.479-5.542-6.229-9.642.3-4.855,4.21-6.8,7.13-7.848a18.731,18.731,0,0,1,6.363-1.271h.085a6.829,6.829,0,0,0,6.868-4.684,79.053,79.053,0,0,0,2.567-7.89q.374-1.323.767-2.628a5.95,5.95,0,0,0,.152-1,5.337,5.337,0,0,1,.566-2.227c.7-1.253,1.855-2.8,3.346-3.109,1.612-.322,3.693,1.551,4.1,2.859.718,2.342,1.235,4.757,1.734,7.093.189.882.377,1.764.578,2.64l.049.219Zm1.588-2.312c-.14-1.326-.31-2.981-.59-4.623a19.084,19.084,0,0,0-1.138-3.79,6.757,6.757,0,0,0-6.016-4.629,4.418,4.418,0,0,0-.487.024c-2.75.255-4.891,2.561-5.6,6.01-.706,3.48-1.612,7.257-2.768,11.546-.785,2.92-3.133,3.741-5.323,4.155-3.693.694-7.251,1.46-10.171,3.1-3.583,2-5.7,4.879-5.974,8.1-.28,3.37,1.448,6.746,4.879,9.5,4.234,3.413,8.924,4.9,13.554,4.313,4.666-.59,8.863-3.242,12.155-7.665,4.8-6.448,7.142-14.132,7.6-24.887C286.84,332.966,286.8,332.577,286.755,332.151Zm-1.588,2.312c-.931,8.8-2.476,15.957-7,22.289-3.346,4.672-7.927,7.111-12.885,7.111a17.588,17.588,0,0,1-8.164-2.135c-4.38-2.3-6.479-5.542-6.229-9.642.3-4.855,4.21-6.8,7.13-7.848a18.731,18.731,0,0,1,6.363-1.271h.085a6.829,6.829,0,0,0,6.868-4.684,79.053,79.053,0,0,0,2.567-7.89q.374-1.323.767-2.628a5.95,5.95,0,0,0,.152-1,5.337,5.337,0,0,1,.566-2.227c.7-1.253,1.855-2.8,3.346-3.109,1.612-.322,3.693,1.551,4.1,2.859.718,2.342,1.235,4.757,1.734,7.093.189.882.377,1.764.578,2.64l.049.219Zm1.588-2.312c-.14-1.326-.31-2.981-.59-4.623a19.084,19.084,0,0,0-1.138-3.79,6.757,6.757,0,0,0-6.016-4.629,4.418,4.418,0,0,0-.487.024c-2.75.255-4.891,2.561-5.6,6.01-.706,3.48-1.612,7.257-2.768,11.546-.785,2.92-3.133,3.741-5.323,4.155-3.693.694-7.251,1.46-10.171,3.1-3.583,2-5.7,4.879-5.974,8.1-.28,3.37,1.448,6.746,4.879,9.5,4.234,3.413,8.924,4.9,13.554,4.313,4.666-.59,8.863-3.242,12.155-7.665,4.8-6.448,7.142-14.132,7.6-24.887C286.84,332.966,286.8,332.577,286.755,332.151Zm-1.588,2.312c-.931,8.8-2.476,15.957-7,22.289-3.346,4.672-7.927,7.111-12.885,7.111a17.588,17.588,0,0,1-8.164-2.135c-4.38-2.3-6.479-5.542-6.229-9.642.3-4.855,4.21-6.8,7.13-7.848a18.731,18.731,0,0,1,6.363-1.271h.085a6.829,6.829,0,0,0,6.868-4.684,79.053,79.053,0,0,0,2.567-7.89q.374-1.323.767-2.628a5.95,5.95,0,0,0,.152-1,5.337,5.337,0,0,1,.566-2.227c.7-1.253,1.855-2.8,3.346-3.109,1.612-.322,3.693,1.551,4.1,2.859.718,2.342,1.235,4.757,1.734,7.093.189.882.377,1.764.578,2.64l.049.219Zm1.588-2.312c-.14-1.326-.31-2.981-.59-4.623a19.084,19.084,0,0,0-1.138-3.79,6.757,6.757,0,0,0-6.016-4.629,4.418,4.418,0,0,0-.487.024c-2.75.255-4.891,2.561-5.6,6.01-.706,3.48-1.612,7.257-2.768,11.546-.785,2.92-3.133,3.741-5.323,4.155-3.693.694-7.251,1.46-10.171,3.1-3.583,2-5.7,4.879-5.974,8.1-.28,3.37,1.448,6.746,4.879,9.5,4.234,3.413,8.924,4.9,13.554,4.313,4.666-.59,8.863-3.242,12.155-7.665,4.8-6.448,7.142-14.132,7.6-24.887C286.84,332.966,286.8,332.577,286.755,332.151Zm-1.588,2.312c-.931,8.8-2.476,15.957-7,22.289-3.346,4.672-7.927,7.111-12.885,7.111a17.588,17.588,0,0,1-8.164-2.135c-4.38-2.3-6.479-5.542-6.229-9.642.3-4.855,4.21-6.8,7.13-7.848a18.731,18.731,0,0,1,6.363-1.271h.085a6.829,6.829,0,0,0,6.868-4.684,79.053,79.053,0,0,0,2.567-7.89q.374-1.323.767-2.628a5.95,5.95,0,0,0,.152-1,5.337,5.337,0,0,1,.566-2.227c.7-1.253,1.855-2.8,3.346-3.109,1.612-.322,3.693,1.551,4.1,2.859.718,2.342,1.235,4.757,1.734,7.093.189.882.377,1.764.578,2.64l.049.219Zm1.588-2.312c-.14-1.326-.31-2.981-.59-4.623a19.084,19.084,0,0,0-1.138-3.79,6.757,6.757,0,0,0-6.016-4.629,4.418,4.418,0,0,0-.487.024c-2.75.255-4.891,2.561-5.6,6.01-.706,3.48-1.612,7.257-2.768,11.546-.785,2.92-3.133,3.741-5.323,4.155-3.693.694-7.251,1.46-10.171,3.1-3.583,2-5.7,4.879-5.974,8.1-.28,3.37,1.448,6.746,4.879,9.5,4.234,3.413,8.924,4.9,13.554,4.313,4.666-.59,8.863-3.242,12.155-7.665,4.8-6.448,7.142-14.132,7.6-24.887C286.84,332.966,286.8,332.577,286.755,332.151Zm-1.588,2.312c-.931,8.8-2.476,15.957-7,22.289-3.346,4.672-7.927,7.111-12.885,7.111a17.588,17.588,0,0,1-8.164-2.135c-4.38-2.3-6.479-5.542-6.229-9.642.3-4.855,4.21-6.8,7.13-7.848a18.731,18.731,0,0,1,6.363-1.271h.085a6.829,6.829,0,0,0,6.868-4.684,79.053,79.053,0,0,0,2.567-7.89q.374-1.323.767-2.628a5.95,5.95,0,0,0,.152-1,5.337,5.337,0,0,1,.566-2.227c.7-1.253,1.855-2.8,3.346-3.109,1.612-.322,3.693,1.551,4.1,2.859.718,2.342,1.235,4.757,1.734,7.093.189.882.377,1.764.578,2.64l.049.219Zm1.588-2.312c-.14-1.326-.31-2.981-.59-4.623a19.084,19.084,0,0,0-1.138-3.79,6.757,6.757,0,0,0-6.016-4.629,4.418,4.418,0,0,0-.487.024c-2.75.255-4.891,2.561-5.6,6.01-.706,3.48-1.612,7.257-2.768,11.546-.785,2.92-3.133,3.741-5.323,4.155-3.693.694-7.251,1.46-10.171,3.1-3.583,2-5.7,4.879-5.974,8.1-.28,3.37,1.448,6.746,4.879,9.5,4.234,3.413,8.924,4.9,13.554,4.313,4.666-.59,8.863-3.242,12.155-7.665,4.8-6.448,7.142-14.132,7.6-24.887C286.84,332.966,286.8,332.577,286.755,332.151Zm-1.588,2.312c-.931,8.8-2.476,15.957-7,22.289-3.346,4.672-7.927,7.111-12.885,7.111a17.588,17.588,0,0,1-8.164-2.135c-4.38-2.3-6.479-5.542-6.229-9.642.3-4.855,4.21-6.8,7.13-7.848a18.731,18.731,0,0,1,6.363-1.271h.085a6.829,6.829,0,0,0,6.868-4.684,79.053,79.053,0,0,0,2.567-7.89q.374-1.323.767-2.628a5.95,5.95,0,0,0,.152-1,5.337,5.337,0,0,1,.566-2.227c.7-1.253,1.855-2.8,3.346-3.109,1.612-.322,3.693,1.551,4.1,2.859.718,2.342,1.235,4.757,1.734,7.093.189.882.377,1.764.578,2.64l.049.219Zm1.588-2.312c-.14-1.326-.31-2.981-.59-4.623a19.084,19.084,0,0,0-1.138-3.79,6.757,6.757,0,0,0-6.016-4.629,4.418,4.418,0,0,0-.487.024c-2.75.255-4.891,2.561-5.6,6.01-.706,3.48-1.612,7.257-2.768,11.546-.785,2.92-3.133,3.741-5.323,4.155-3.693.694-7.251,1.46-10.171,3.1-3.583,2-5.7,4.879-5.974,8.1-.28,3.37,1.448,6.746,4.879,9.5,4.234,3.413,8.924,4.9,13.554,4.313,4.666-.59,8.863-3.242,12.155-7.665,4.8-6.448,7.142-14.132,7.6-24.887C286.84,332.966,286.8,332.577,286.755,332.151Zm-1.588,2.312c-.931,8.8-2.476,15.957-7,22.289-3.346,4.672-7.927,7.111-12.885,7.111a17.588,17.588,0,0,1-8.164-2.135c-4.38-2.3-6.479-5.542-6.229-9.642.3-4.855,4.21-6.8,7.13-7.848a18.731,18.731,0,0,1,6.363-1.271h.085a6.829,6.829,0,0,0,6.868-4.684,79.053,79.053,0,0,0,2.567-7.89q.374-1.323.767-2.628a5.95,5.95,0,0,0,.152-1,5.337,5.337,0,0,1,.566-2.227c.7-1.253,1.855-2.8,3.346-3.109,1.612-.322,3.693,1.551,4.1,2.859.718,2.342,1.235,4.757,1.734,7.093.189.882.377,1.764.578,2.64l.049.219Zm141.98-74.5a129.432,129.432,0,0,0-73.5-34.809c-35.484-4.684-67.866,3.352-96.263,23.889-33.027,23.889-51.946,56.582-56.235,97.158-.292,2.78-.511,5.621-.73,8.371q-.146,1.935-.3,3.863v1.709q.155,1.77.3,3.54c.219,2.549.444,5.183.7,7.762,3.315,33.331,17.173,61.892,41.191,84.894,24.771,23.725,54.805,36.391,89.249,37.65a18.277,18.277,0,0,1,2.585.335c.329.061.651.122.979.17h2.2c.256-.049.517-.1.773-.152.675-.134,1.375-.274,2.1-.365,2.689-.347,5.432-.621,8.091-.888a143.657,143.657,0,0,0,16.735-2.354,134.72,134.72,0,0,0,70.944-41.33,132.291,132.291,0,0,0,33.732-74.594C474.658,330.009,460.344,291.368,427.147,259.965ZM226.128,285.637c.262-.6.493-1.235.736-1.9a17.16,17.16,0,0,1,2.111-4.423,133.141,133.141,0,0,1,26.451-26.718,5,5,0,0,1,4.344-1.271,4.372,4.372,0,0,1,2.841,2.823,86.4,86.4,0,0,1,4.635,13.6,65.036,65.036,0,0,1,1.223,9.435c.109,1.308.213,2.652.353,3.966A4.112,4.112,0,0,1,265.572,286c-12.574,3.285-20.428,12.106-24.717,27.752-.359,1.308-1.454,3.711-3.291,4.423a3.959,3.959,0,0,1-1.417.292c-2.16,0-3.109-2.287-3.553-3.37-.079-.189-.152-.377-.231-.554-3.924-8.736-5.061-17.885-6.26-27.57l-.128-1Zm-23.366,70.738a130.052,130.052,0,0,1,7.257-41.446l1.223-3.65,1.351,3.607c.335.882.627,1.709.9,2.482a39.789,39.789,0,0,0,1.618,4.125l.389.809a82.063,82.063,0,0,0,4.934,9.18,9.748,9.748,0,0,1,1.557,7.525c-1.685,9.7-8.949,17.4-17.654,18.725l-1.582.243ZM339.431,491.28a31.219,31.219,0,0,1-7.245.767,91.353,91.353,0,0,1-10.828-.87l-1.734-.207A131.158,131.158,0,0,1,251.1,461.891c-.274-.225-.535-.462-.84-.748-.146-.134-.3-.28-.475-.432l-1.642-1.5,2.074-.8c.87-.335,1.722-.639,2.543-.931a43.866,43.866,0,0,0,4.721-1.9A6.5,6.5,0,0,0,261,450.278a5.16,5.16,0,0,0-2.1-4.745c-8.6-6.1-11.023-15.166-12.623-23.184a65.372,65.372,0,0,1-.931-7.829c-.122-1.527-.243-3.115-.432-4.642-.5-4.039,1.381-7.2,5.025-8.456l1.113-.383a134.421,134.421,0,0,1,18.469-5.408,117.578,117.578,0,0,1,13.974-1.509c2.2-.146,4.477-.3,6.7-.517a5.2,5.2,0,0,1,5.877,3.443,15.875,15.875,0,0,0,8.955,8.468,125.006,125.006,0,0,0,16.571,4.97c2.239.547,4.271,1.326,4.569,4.782a29.223,29.223,0,0,0,7.635,17.526c7.142,7.811,11.218,15.4,12.836,23.871.687,3.577,3.607,4.672,5.943,4.958q4.663.584,9.338,1.138a4.271,4.271,0,0,1,3.571,2.056,3.84,3.84,0,0,1-.231,3.729C358.581,481.285,350.131,488.719,339.431,491.28ZM460.8,403.539c-7.434,22.265-22.071,43.1-41.2,58.668a128.226,128.226,0,0,1-67.507,28.543l-4.185.444,3.127-2.823c.8-.718,1.6-1.393,2.379-2.05a35.709,35.709,0,0,0,4.49-4.228,94.543,94.543,0,0,0,8.894-11.96,6.073,6.073,0,0,0,.444-5.834,6.8,6.8,0,0,0-5.286-3.693c-3.334-.511-6.26-.864-8.943-1.065a4.519,4.519,0,0,1-4.562-4.009c-1.454-8.231-5.524-15.878-12.441-23.391a29.388,29.388,0,0,1-7.8-17.4c-.353-3.626-2.318-5.548-6.564-6.424A104.467,104.467,0,0,1,306.343,404a15.658,15.658,0,0,1-8.809-8.626,6.015,6.015,0,0,0-5.907-3.887c-14.734.432-25.775,2.135-35.795,5.53-1.132.383-2.348.87-3.82,1.533-8.425,3.772-9.764,6.065-8.943,15.336.76,8.644,2.4,15.507,5.14,21.608,2.318,5.159,5.122,8.711,8.815,11.175,2.184,1.454,2.385,3.011,2.306,3.814-.073.767-.535,2.2-2.786,3.145a42.556,42.556,0,0,1-9.277,2.64c-2.135.359-4.453-1.849-4.709-2.1-18.694-18.354-30.971-40.3-36.482-65.244-1.338-6.053-2.141-12.331-2.92-18.4-.353-2.786-.724-5.67-1.138-8.511l-.189-1.265,1.253-.268a25.546,25.546,0,0,0,18.433-14.156,35.3,35.3,0,0,0,2.482-6.85,9.829,9.829,0,0,0-1.612-8.882,47.218,47.218,0,0,1-8.182-19.759,13.976,13.976,0,0,1,1.454-9.654c1.405-2.519,2.75-5.086,4.167-7.8.639-1.217,1.3-2.464,1.977-3.753l1.843-3.486.712,3.875c.341,1.849.651,3.638.955,5.39.687,3.979,1.344,7.744,2.2,11.437a55.5,55.5,0,0,0,3.224,9.2c1.424,3.3,3.8,4.849,6.868,4.49,3.431-.414,4.891-3.948,5.457-6.023a56.729,56.729,0,0,1,3.893-11.1c4.246-8.31,10.609-13.469,18.925-15.33a6.009,6.009,0,0,0,5.043-5.98c-.359-11.309-2.123-19.582-5.724-26.846a30.627,30.627,0,0,0-2.172-3.54c-.383-.572-.767-1.138-1.138-1.716l-.706-1.107,1.083-.748c23.245-16.151,52.64-23.883,82.777-21.778,30.539,2.129,58.887,14.253,79.82,34.14l1.156,1.1-1.259.979c-5.165,4.009-7.969,9.776-9.095,18.713-.268,2.141-1.028,3.7-3.851,4.35-4.654,1.071-7.282,4.812-9.235,8.328-.164.3-.316.651-.475,1.022a6.908,6.908,0,0,1-1.527,2.482,4.964,4.964,0,0,1-4.4,1.235,4.381,4.381,0,0,1-2.47-4.173c.833-4.423,1.928-8.76,2.987-12.793.986-3.772-.189-6.984-3.005-8.176-3.017-1.284-6.126-.036-8.109,3.248a58.6,58.6,0,0,0-7.841,23.482c-.481,3.82-1.344,4.928-5.816,4.441-4.49-.487-8.109-.748-11.4-.821-2.665-.061-4.149-1.15-4.952-3.638-2.744-8.474-12.9-13.858-21.049-14.618a6.262,6.262,0,0,0-6.023,4.271c-1.314,4.581-4,6.674-8.991,6.99a24.88,24.88,0,0,0-18.5,9.368c-5.213,6.588-4.9,12.313,1.144,20.422a4.379,4.379,0,0,0,3.413,1.728,8.23,8.23,0,0,0,6.211-2.78l.748-.821c2.719-3,5.536-6.09,8.943-8.31,2.883-1.874,6.333-2.762,9.666-3.626.481-.128.961-.249,1.436-.377a3.621,3.621,0,0,1,3.7.809,3.873,3.873,0,0,1,.548,4.009c-.833,2.409-1.892,4.909-4.806,6.692a15.5,15.5,0,0,0-5.445,5.755,115.218,115.218,0,0,0-6.643,15.677,4.5,4.5,0,0,1-3.954,3.145c-.2.043-.408.079-.6.128-1.673.444-3.583-1.223-4.131-1.74a24.877,24.877,0,0,1-2.093-2.385,10.81,10.81,0,0,0-3.151-3.048,5.6,5.6,0,0,0-4.97.1,10.4,10.4,0,0,0-5.329,7.02c-1.223,5.189-2.731,9.435-6.144,13.274-1.722,1.935-2.373,3.985-1.88,5.925.554,2.19,2.555,4.058,5.487,5.122,6.85,2.47,12.246,1.211,16.973-3.966.742-.815,2.853-1.935,4.088-1.095l.414.286a25.479,25.479,0,0,1,6.108,5.153c1.235,1.588-.949,4.867-1.941,6.2a7.1,7.1,0,0,0-1.144,6.229,5.04,5.04,0,0,0,3.182,3.4c4.483,1.551,8.31,1.521,11.7-.1,6.661-3.188,9.222-8.06,7.835-14.91a52.231,52.231,0,0,0-3.687-10.263l-.566-1.29c-.62-1.436-1.922-4.423,1.326-5.889,2.926-1.32,5.943-2.519,8.864-3.674q1.807-.721,3.614-1.448l.961-.389,1.776,2.293-.809,2.877c-.468,1.636-.937,3.279-1.381,4.921-1.156,4.246-.249,6.765,3.346,9.3,3.474,2.445,7.732,3.674,13.025,3.747a.3.3,0,0,0,.073.006,4.826,4.826,0,0,0,4.587-3.182,68.7,68.7,0,0,0,3.449-12.167c.268-1.46.827-4.5,4.216-4.952a102.575,102.575,0,0,1,11.285-.937,2.929,2.929,0,0,1,2.087,1.04,3.954,3.954,0,0,1,1.284,2.543c-.195,8.571-1.9,15.263-5.359,21.048a19.563,19.563,0,0,1-14.144,9.709,192.1,192.1,0,0,0-25.86,6.856c-2.756.919-4.453,2.172-5.183,3.833-.8,1.8-.511,4.191.87,7.306,5.773,13.006,11.631,22.807,18.451,30.843,11.644,13.718,22.545,16.164,38.909,8.711,2.22-1.01,4.38-2.233,6.576-3.5,2.47-1.424,3.614-3.431,3.407-5.962a6.173,6.173,0,0,0-4.264-5.426,48.229,48.229,0,0,1-17.04-11.9c-1.387-1.466-2.293-2.744-2.22-4.24.079-1.527,1.168-2.768,2.78-4.149.2-.176.408-.377.627-.584.992-.943,2.22-2.129,3.869-2.044A3.934,3.934,0,0,1,398,408.783c6.357,7.41,15,10.4,24.145,13.566l1.211.42a5.68,5.68,0,0,0,6.923-3.072c4.149-11.078,13.578-14.783,22.253-16.942a35,35,0,0,1,4.483-.712c.73-.085,1.49-.176,2.293-.292l2.19-.31Zm7.8-44.6a138.573,138.573,0,0,1-5.019,36.7c-.767,2.774-2.245,3.991-5.116,4.191a40.666,40.666,0,0,0-21.553,7.781,21.784,21.784,0,0,0-8.188,10.421,4.421,4.421,0,0,1-2.16,2.762,3.763,3.763,0,0,1-3.072-.17c-1.789-.773-3.62-1.527-5.4-2.257-3.668-1.509-7.458-3.072-11.078-4.879a26.2,26.2,0,0,1-6.868-5.639c-2.774-2.89-6.339-3.224-9.3-.876a20.2,20.2,0,0,0-3.443,3.37c-2.233,2.871-2.111,5.706.377,8.432a54.161,54.161,0,0,0,18.068,13.189,5.952,5.952,0,0,1,3.352,3.826c.3,1.819-1.953,3.674-2.768,4.179a43.144,43.144,0,0,1-19.923,6.9c-.657.049-1.3.073-1.922.073a18.646,18.646,0,0,1-12.678-4.52,81.352,81.352,0,0,1-10.5-10.828c-6.406-8.164-11.011-17.2-15.951-28.269a5.034,5.034,0,0,1-.243-4.252,4.913,4.913,0,0,1,3.352-2.512c1.764-.5,3.534-1.022,5.3-1.533,6.68-1.953,13.59-3.966,20.537-5.341,6.12-1.211,10.555-3.948,13.949-8.614,5.116-7.02,7.586-15.373,7.568-25.52a4.629,4.629,0,0,0-2.123-3.115,18.933,18.933,0,0,0-18.658,1.728c-1.162.773-1.874,3.431-2.178,4.569-.432,1.606-.7,3.249-.985,4.982-.256,1.557-.517,3.169-.913,4.751a4.829,4.829,0,0,1-6.059,3.7c-.608-.134-1.217-.268-1.831-.4a42.384,42.384,0,0,1-7.4-2.05c-3.2-1.32-4.459-4.289-3.285-7.744a76.193,76.193,0,0,0,2.214-8.048c.231-1.052.371-2.464-.255-3.2s-2-.8-3.042-.742a32.842,32.842,0,0,0-15.117,4.934c-3.346,2.008-3.285,6.187-1.813,9.229a48.064,48.064,0,0,1,4.039,11.954,9.682,9.682,0,0,1-1.5,7.361,10.245,10.245,0,0,1-6.74,4.216,24.555,24.555,0,0,1-8.279-.28,3.445,3.445,0,0,1-2.859-2.038,3.9,3.9,0,0,1,.827-3.79,12.715,12.715,0,0,1,.949-1.083,4.489,4.489,0,0,0,1.04-1.357c.079-.256.164-.5.243-.766.535-1.649,1.138-3.522.809-4.824-.827-3.267-3.474-5.718-8.079-7.5-2.6-1.01-5.086-.109-7.61,2.744-3.693,4.179-12.167,4.587-16.492.8a4.155,4.155,0,0,1-1.052-3.723,6.882,6.882,0,0,1,2.123-3.583c3.036-2.391,3.966-5.834,4.946-9.478.268-.985.541-2,.864-3l.037-.122a12.6,12.6,0,0,1,2.068-4.386c1.387-1.636,2.744-2.4,4.167-2.318,1.448.085,2.762,1.04,4.027,2.92.262.4.481.791.7,1.174.231.408.444.791.687,1.138a5.943,5.943,0,0,0,6.266,2.7c3.364-.687,5.232-2.087,6.071-4.538,1.259-3.674,2.744-7.945,4.49-12.021a18.862,18.862,0,0,1,8.419-9.618c3.352-1.819,4.2-5.566,4.325-8.383a5.561,5.561,0,0,0-1.752-4.362,6.474,6.474,0,0,0-5.147-1.643c-7.6.8-14.071,4.587-20.349,11.905-2.488,2.908-4.2,4.435-6.083,4.167s-3.09-2.178-4.757-5.834c-2.366-5.2-1.472-9.952,2.738-14.527s10.135-7.075,17.094-7.2c4.623-.079,7.525-2.239,9.119-6.783,1.3-3.717,3.5-4.879,7.343-3.875,6.339,1.649,14,4.751,16.973,14.15.925,2.908,3.766,3.522,5.378,3.632,4.556.31,9.089.694,13.341,1.052,3.644.31,6.527-2.348,7-6.473a57.2,57.2,0,0,1,6.381-20.677c.1-.189.195-.389.292-.59a6.116,6.116,0,0,1,1.728-2.4c.627-.462,2.817-1.922,4.5-1.211,1.515.645,2.251,3.212,1.983,4.563-.456,2.33-1.034,4.654-1.594,6.9-.517,2.1-1.059,4.264-1.49,6.406-.681,3.382.973,6.491,3.936,7.391,3.066.931,6.138-.554,7.647-3.693,2.026-4.21,4.69-8.809,10.792-10.19,1.941-.438,3.182-2.129,3.693-5.019a71.875,71.875,0,0,1,2.464-10.5,17.608,17.608,0,0,1,3.741-5.731,4.6,4.6,0,0,1,3.322-1.782,5.1,5.1,0,0,1,3.747,1.935c24.486,25.757,37.133,57.032,37.589,92.948ZM286.164,327.527a19.084,19.084,0,0,0-1.138-3.79,6.757,6.757,0,0,0-6.016-4.629,4.418,4.418,0,0,0-.487.024c-2.75.255-4.891,2.561-5.6,6.01-.706,3.48-1.612,7.257-2.768,11.546-.785,2.92-3.133,3.741-5.323,4.155-3.693.694-7.251,1.46-10.171,3.1-3.583,2-5.7,4.879-5.974,8.1-.28,3.37,1.448,6.746,4.879,9.5,4.234,3.413,8.924,4.9,13.554,4.313,4.666-.59,8.863-3.242,12.155-7.665,4.8-6.448,7.142-14.132,7.6-24.887-.043-.335-.079-.724-.128-1.15C286.615,330.825,286.444,329.17,286.164,327.527Zm-1,6.935c-.931,8.8-2.476,15.957-7,22.289-3.346,4.672-7.927,7.111-12.885,7.111a17.588,17.588,0,0,1-8.164-2.135c-4.38-2.3-6.479-5.542-6.229-9.642.3-4.855,4.21-6.8,7.13-7.848a18.731,18.731,0,0,1,6.363-1.271h.085a6.829,6.829,0,0,0,6.868-4.684,79.053,79.053,0,0,0,2.567-7.89q.374-1.323.767-2.628a5.95,5.95,0,0,0,.152-1,5.337,5.337,0,0,1,.566-2.227c.7-1.253,1.855-2.8,3.346-3.109,1.612-.322,3.693,1.551,4.1,2.859.718,2.342,1.235,4.757,1.734,7.093.189.882.377,1.764.578,2.64l.049.219Zm1.588-2.312c-.14-1.326-.31-2.981-.59-4.623a19.084,19.084,0,0,0-1.138-3.79,6.757,6.757,0,0,0-6.016-4.629,4.418,4.418,0,0,0-.487.024c-2.75.255-4.891,2.561-5.6,6.01-.706,3.48-1.612,7.257-2.768,11.546-.785,2.92-3.133,3.741-5.323,4.155-3.693.694-7.251,1.46-10.171,3.1-3.583,2-5.7,4.879-5.974,8.1-.28,3.37,1.448,6.746,4.879,9.5,4.234,3.413,8.924,4.9,13.554,4.313,4.666-.59,8.863-3.242,12.155-7.665,4.8-6.448,7.142-14.132,7.6-24.887C286.84,332.966,286.8,332.577,286.755,332.151Zm-1.588,2.312c-.931,8.8-2.476,15.957-7,22.289-3.346,4.672-7.927,7.111-12.885,7.111a17.588,17.588,0,0,1-8.164-2.135c-4.38-2.3-6.479-5.542-6.229-9.642.3-4.855,4.21-6.8,7.13-7.848a18.731,18.731,0,0,1,6.363-1.271h.085a6.829,6.829,0,0,0,6.868-4.684,79.053,79.053,0,0,0,2.567-7.89q.374-1.323.767-2.628a5.95,5.95,0,0,0,.152-1,5.337,5.337,0,0,1,.566-2.227c.7-1.253,1.855-2.8,3.346-3.109,1.612-.322,3.693,1.551,4.1,2.859.718,2.342,1.235,4.757,1.734,7.093.189.882.377,1.764.578,2.64l.049.219Zm1.588-2.312c-.14-1.326-.31-2.981-.59-4.623a19.084,19.084,0,0,0-1.138-3.79,6.757,6.757,0,0,0-6.016-4.629,4.418,4.418,0,0,0-.487.024c-2.75.255-4.891,2.561-5.6,6.01-.706,3.48-1.612,7.257-2.768,11.546-.785,2.92-3.133,3.741-5.323,4.155-3.693.694-7.251,1.46-10.171,3.1-3.583,2-5.7,4.879-5.974,8.1-.28,3.37,1.448,6.746,4.879,9.5,4.234,3.413,8.924,4.9,13.554,4.313,4.666-.59,8.863-3.242,12.155-7.665,4.8-6.448,7.142-14.132,7.6-24.887C286.84,332.966,286.8,332.577,286.755,332.151Zm-1.588,2.312c-.931,8.8-2.476,15.957-7,22.289-3.346,4.672-7.927,7.111-12.885,7.111a17.588,17.588,0,0,1-8.164-2.135c-4.38-2.3-6.479-5.542-6.229-9.642.3-4.855,4.21-6.8,7.13-7.848a18.731,18.731,0,0,1,6.363-1.271h.085a6.829,6.829,0,0,0,6.868-4.684,79.053,79.053,0,0,0,2.567-7.89q.374-1.323.767-2.628a5.95,5.95,0,0,0,.152-1,5.337,5.337,0,0,1,.566-2.227c.7-1.253,1.855-2.8,3.346-3.109,1.612-.322,3.693,1.551,4.1,2.859.718,2.342,1.235,4.757,1.734,7.093.189.882.377,1.764.578,2.64l.049.219Zm1.588-2.312c-.14-1.326-.31-2.981-.59-4.623a19.084,19.084,0,0,0-1.138-3.79,6.757,6.757,0,0,0-6.016-4.629,4.418,4.418,0,0,0-.487.024c-2.75.255-4.891,2.561-5.6,6.01-.706,3.48-1.612,7.257-2.768,11.546-.785,2.92-3.133,3.741-5.323,4.155-3.693.694-7.251,1.46-10.171,3.1-3.583,2-5.7,4.879-5.974,8.1-.28,3.37,1.448,6.746,4.879,9.5,4.234,3.413,8.924,4.9,13.554,4.313,4.666-.59,8.863-3.242,12.155-7.665,4.8-6.448,7.142-14.132,7.6-24.887C286.84,332.966,286.8,332.577,286.755,332.151Zm-1.588,2.312c-.931,8.8-2.476,15.957-7,22.289-3.346,4.672-7.927,7.111-12.885,7.111a17.588,17.588,0,0,1-8.164-2.135c-4.38-2.3-6.479-5.542-6.229-9.642.3-4.855,4.21-6.8,7.13-7.848a18.731,18.731,0,0,1,6.363-1.271h.085a6.829,6.829,0,0,0,6.868-4.684,79.053,79.053,0,0,0,2.567-7.89q.374-1.323.767-2.628a5.95,5.95,0,0,0,.152-1,5.337,5.337,0,0,1,.566-2.227c.7-1.253,1.855-2.8,3.346-3.109,1.612-.322,3.693,1.551,4.1,2.859.718,2.342,1.235,4.757,1.734,7.093.189.882.377,1.764.578,2.64l.049.219Zm1.588-2.312c-.14-1.326-.31-2.981-.59-4.623a19.084,19.084,0,0,0-1.138-3.79,6.757,6.757,0,0,0-6.016-4.629,4.418,4.418,0,0,0-.487.024c-2.75.255-4.891,2.561-5.6,6.01-.706,3.48-1.612,7.257-2.768,11.546-.785,2.92-3.133,3.741-5.323,4.155-3.693.694-7.251,1.46-10.171,3.1-3.583,2-5.7,4.879-5.974,8.1-.28,3.37,1.448,6.746,4.879,9.5,4.234,3.413,8.924,4.9,13.554,4.313,4.666-.59,8.863-3.242,12.155-7.665,4.8-6.448,7.142-14.132,7.6-24.887C286.84,332.966,286.8,332.577,286.755,332.151Zm-1.588,2.312c-.931,8.8-2.476,15.957-7,22.289-3.346,4.672-7.927,7.111-12.885,7.111a17.588,17.588,0,0,1-8.164-2.135c-4.38-2.3-6.479-5.542-6.229-9.642.3-4.855,4.21-6.8,7.13-7.848a18.731,18.731,0,0,1,6.363-1.271h.085a6.829,6.829,0,0,0,6.868-4.684,79.053,79.053,0,0,0,2.567-7.89q.374-1.323.767-2.628a5.95,5.95,0,0,0,.152-1,5.337,5.337,0,0,1,.566-2.227c.7-1.253,1.855-2.8,3.346-3.109,1.612-.322,3.693,1.551,4.1,2.859.718,2.342,1.235,4.757,1.734,7.093.189.882.377,1.764.578,2.64l.049.219Zm1.588-2.312c-.14-1.326-.31-2.981-.59-4.623a19.084,19.084,0,0,0-1.138-3.79,6.757,6.757,0,0,0-6.016-4.629,4.418,4.418,0,0,0-.487.024c-2.75.255-4.891,2.561-5.6,6.01-.706,3.48-1.612,7.257-2.768,11.546-.785,2.92-3.133,3.741-5.323,4.155-3.693.694-7.251,1.46-10.171,3.1-3.583,2-5.7,4.879-5.974,8.1-.28,3.37,1.448,6.746,4.879,9.5,4.234,3.413,8.924,4.9,13.554,4.313,4.666-.59,8.863-3.242,12.155-7.665,4.8-6.448,7.142-14.132,7.6-24.887C286.84,332.966,286.8,332.577,286.755,332.151Zm-1.588,2.312c-.931,8.8-2.476,15.957-7,22.289-3.346,4.672-7.927,7.111-12.885,7.111a17.588,17.588,0,0,1-8.164-2.135c-4.38-2.3-6.479-5.542-6.229-9.642.3-4.855,4.21-6.8,7.13-7.848a18.731,18.731,0,0,1,6.363-1.271h.085a6.829,6.829,0,0,0,6.868-4.684,79.053,79.053,0,0,0,2.567-7.89q.374-1.323.767-2.628a5.95,5.95,0,0,0,.152-1,5.337,5.337,0,0,1,.566-2.227c.7-1.253,1.855-2.8,3.346-3.109,1.612-.322,3.693,1.551,4.1,2.859.718,2.342,1.235,4.757,1.734,7.093.189.882.377,1.764.578,2.64l.049.219Zm1.588-2.312c-.14-1.326-.31-2.981-.59-4.623a19.084,19.084,0,0,0-1.138-3.79,6.757,6.757,0,0,0-6.016-4.629,4.418,4.418,0,0,0-.487.024c-2.75.255-4.891,2.561-5.6,6.01-.706,3.48-1.612,7.257-2.768,11.546-.785,2.92-3.133,3.741-5.323,4.155-3.693.694-7.251,1.46-10.171,3.1-3.583,2-5.7,4.879-5.974,8.1-.28,3.37,1.448,6.746,4.879,9.5,4.234,3.413,8.924,4.9,13.554,4.313,4.666-.59,8.863-3.242,12.155-7.665,4.8-6.448,7.142-14.132,7.6-24.887C286.84,332.966,286.8,332.577,286.755,332.151Zm-1.588,2.312c-.931,8.8-2.476,15.957-7,22.289-3.346,4.672-7.927,7.111-12.885,7.111a17.588,17.588,0,0,1-8.164-2.135c-4.38-2.3-6.479-5.542-6.229-9.642.3-4.855,4.21-6.8,7.13-7.848a18.731,18.731,0,0,1,6.363-1.271h.085a6.829,6.829,0,0,0,6.868-4.684,79.053,79.053,0,0,0,2.567-7.89q.374-1.323.767-2.628a5.95,5.95,0,0,0,.152-1,5.337,5.337,0,0,1,.566-2.227c.7-1.253,1.855-2.8,3.346-3.109,1.612-.322,3.693,1.551,4.1,2.859.718,2.342,1.235,4.757,1.734,7.093.189.882.377,1.764.578,2.64l.049.219Zm1.588-2.312c-.14-1.326-.31-2.981-.59-4.623a19.084,19.084,0,0,0-1.138-3.79,6.757,6.757,0,0,0-6.016-4.629,4.418,4.418,0,0,0-.487.024c-2.75.255-4.891,2.561-5.6,6.01-.706,3.48-1.612,7.257-2.768,11.546-.785,2.92-3.133,3.741-5.323,4.155-3.693.694-7.251,1.46-10.171,3.1-3.583,2-5.7,4.879-5.974,8.1-.28,3.37,1.448,6.746,4.879,9.5,4.234,3.413,8.924,4.9,13.554,4.313,4.666-.59,8.863-3.242,12.155-7.665,4.8-6.448,7.142-14.132,7.6-24.887C286.84,332.966,286.8,332.577,286.755,332.151Zm-1.588,2.312c-.931,8.8-2.476,15.957-7,22.289-3.346,4.672-7.927,7.111-12.885,7.111a17.588,17.588,0,0,1-8.164-2.135c-4.38-2.3-6.479-5.542-6.229-9.642.3-4.855,4.21-6.8,7.13-7.848a18.731,18.731,0,0,1,6.363-1.271h.085a6.829,6.829,0,0,0,6.868-4.684,79.053,79.053,0,0,0,2.567-7.89q.374-1.323.767-2.628a5.95,5.95,0,0,0,.152-1,5.337,5.337,0,0,1,.566-2.227c.7-1.253,1.855-2.8,3.346-3.109,1.612-.322,3.693,1.551,4.1,2.859.718,2.342,1.235,4.757,1.734,7.093.189.882.377,1.764.578,2.64l.049.219Zm1.588-2.312c-.14-1.326-.31-2.981-.59-4.623a19.084,19.084,0,0,0-1.138-3.79,6.757,6.757,0,0,0-6.016-4.629,4.418,4.418,0,0,0-.487.024c-2.75.255-4.891,2.561-5.6,6.01-.706,3.48-1.612,7.257-2.768,11.546-.785,2.92-3.133,3.741-5.323,4.155-3.693.694-7.251,1.46-10.171,3.1-3.583,2-5.7,4.879-5.974,8.1-.28,3.37,1.448,6.746,4.879,9.5,4.234,3.413,8.924,4.9,13.554,4.313,4.666-.59,8.863-3.242,12.155-7.665,4.8-6.448,7.142-14.132,7.6-24.887C286.84,332.966,286.8,332.577,286.755,332.151Zm-1.588,2.312c-.931,8.8-2.476,15.957-7,22.289-3.346,4.672-7.927,7.111-12.885,7.111a17.588,17.588,0,0,1-8.164-2.135c-4.38-2.3-6.479-5.542-6.229-9.642.3-4.855,4.21-6.8,7.13-7.848a18.731,18.731,0,0,1,6.363-1.271h.085a6.829,6.829,0,0,0,6.868-4.684,79.053,79.053,0,0,0,2.567-7.89q.374-1.323.767-2.628a5.95,5.95,0,0,0,.152-1,5.337,5.337,0,0,1,.566-2.227c.7-1.253,1.855-2.8,3.346-3.109,1.612-.322,3.693,1.551,4.1,2.859.718,2.342,1.235,4.757,1.734,7.093.189.882.377,1.764.578,2.64l.049.219Z" transform="translate(-200.115 -223.861)" fill="#cbcbcb"/>
              </g>
            </g>
            <g id="Group_14" data-name="Group 14" transform="translate(99.381)">
              <path id="Path_34" data-name="Path 34" d="M399.368,235.392l30.95-52.52c13.858-23.516-3.1-53.185-30.391-53.185h-1.118c-27.3,0-44.249,29.669-30.391,53.185Z" transform="translate(-363.479 -129.687)" fill="#e8e8e8" style="isolation: isolate"/>
              <text id="_" data-name="?" transform="translate(16.521 66.958)" fill="#cbcbcb" font-size="65" font-family="ArialRoundedMTBold, Arial Rounded MT Bold"><tspan x="0" y="0">?</tspan></text>
            </g>
          </g>
        </g>
      </g>
    </g>
    <g id="Group_20" data-name="Group 20">
      <g id="noun_Cloud_932" transform="translate(419.523 161.133)">
        <path id="Path_26" data-name="Path 26" d="M57.517,40.692H8.324a8.324,8.324,0,0,1-2.019-16.4,12.017,12.017,0,0,1,9.7-7.444,17.728,17.728,0,0,1,33.732-6.7,16.262,16.262,0,1,1,7.778,30.543Z" fill="#fff"/>
      </g>
      <g id="noun_Cloud_4281257" transform="translate(38.142 130.69)">
        <path id="Path_27" data-name="Path 27" d="M53.187,14.68a14.835,14.835,0,0,0-3.221.362A20.878,20.878,0,0,0,10,23.523v.4A10.3,10.3,0,0,0,11.54,44.413H53.187a14.867,14.867,0,0,0,0-29.733Z" transform="translate(-1.214 -2.633)" fill="#fff"/>
      </g>
      <g id="noun_Cloud_1833258" transform="translate(114.068 50.29)">
        <g id="Group_6" data-name="Group 6" transform="translate(0 0)">
          <path id="Path_28" data-name="Path 28" d="M74.47,27.323A27.18,27.18,0,0,0,48.243,46.25,16.9,16.9,0,0,0,43,45.425a16.484,16.484,0,0,0-13.4,6.746,24.379,24.379,0,0,0-7.282-1.082C12.757,51.089,5,56.338,5,62.808s7.759,11.72,17.326,11.72a24.86,24.86,0,0,0,5.669-.645A38.135,38.135,0,0,0,41.838,76.83c.386.027.774.041,1.167.041l.306,0,.477,0a41.241,41.241,0,0,0,14.276-2.362,28.2,28.2,0,0,0,31.245,1.057,35.985,35.985,0,0,0,12.383,2.086c12.407,0,22.468-5.641,22.468-12.6s-10.031-12.581-22.412-12.6c-.6-13.976-12.584-25.134-27.278-25.134Z" transform="translate(-4.997 -27.323)" fill="#fff" fill-rule="evenodd"/>
        </g>
        <g id="Group_7" data-name="Group 7" transform="translate(227.336 32.902)">
          <path id="Path_28-2" data-name="Path 28" d="M55.418,27.323c-9.029,0-16.646,7.24-19.035,17.138a10.065,10.065,0,0,0-3.8-.747c-4.027,0-7.583,2.416-9.724,6.108a14.485,14.485,0,0,0-5.285-.98C10.629,48.843,5,53.6,5,59.453s5.631,10.612,12.575,10.612a14.644,14.644,0,0,0,4.114-.584A23.119,23.119,0,0,0,31.735,72.15c.28.025.562.037.847.037l.222,0,.346,0A24.646,24.646,0,0,0,43.51,70.048a17.7,17.7,0,0,0,11.907,4.772,17.455,17.455,0,0,0,10.769-3.815,21.515,21.515,0,0,0,8.987,1.889c9,0,16.306-5.108,16.306-11.406S84.2,50.1,75.215,50.081c-.434-12.654-9.133-22.758-19.8-22.758Z" transform="translate(-4.997 -27.323)" fill="#fff" fill-rule="evenodd"/>
        </g>
      </g>
    </g>
  </g>
</svg>
