<?xml version="1.0" encoding="utf-8"?>
<!-- Generator: Adobe Illustrator 25.4.1, SVG Export Plug-In . SVG Version: 6.00 Build 0)  -->
<svg version="1.1" id="Layer_1" xmlns="http://www.w3.org/2000/svg" xmlns:xlink="http://www.w3.org/1999/xlink" x="0px" y="0px"
	 viewBox="0 0 1157 829" style="enable-background:new 0 0 1157 829;" xml:space="preserve">
<style type="text/css">
	.st0{opacity:0.6;fill:none;stroke:#E07580;stroke-width:1.824;stroke-miterlimit:10;stroke-dasharray:3.6562,4.5723;}
</style>
<path class="st0" d="M409.2,97.6C567,32.5,575.7,23.5,627.7,15.1c96.7-15.7,178.6-2.8,208.7,2.2c74,12.2,123.6,33.7,139.2,40.6
	c22.1,10,49.7,22.6,77.6,46.1c21.8,18.8,39.7,41,52.9,65.6c13.6,25.4,24.7,58.2,23.4,135.7c-1.1,65-9.5,70.4-11,118.2
	c-3.9,117,44.5,132.6,24.6,210.5c-5.3,20.6-22.5,88-96.1,129.2c-43.1,24.2-92.3,31.8-155.1,41.6c-36.6,5.7-65.1,7.4-121.9,11.1
	c-70.6,4.5-105.9,6.7-142.6,5.3c-76.7-3.1-134.9-16.7-199.8-32.1c-42.9-10.1-76.7-18.1-119.4-33.3
	c-57.9-20.5-159.3-56.4-231.6-136.6C58.5,599.1,28.8,565.3,15,515.8C-9.7,426.2,36.5,353.2,56.9,321c43.7-69,105-109.5,135.5-129.2
	C236.4,163.3,249.2,163.5,409.2,97.6z"/>
</svg>
