<svg xmlns="http://www.w3.org/2000/svg" width="27.962" height="27.962" viewBox="0 0 27.962 27.962">
  <path id="routine_24dp_E8EAED_FILL0_wght300_GRAD0_opsz24" d="M29.257-926.115a18.546,18.546,0,0,1-1.907-2.231,18.7,18.7,0,0,1-1.525-2.5,4.551,4.551,0,0,0-.409,1.179,6.372,6.372,0,0,0-.12,1.237,6.054,6.054,0,0,0,1.829,4.447,6.053,6.053,0,0,0,4.446,1.829,5.8,5.8,0,0,0,1.237-.135,5.665,5.665,0,0,0,1.179-.394,18.71,18.71,0,0,1-2.5-1.525A18.532,18.532,0,0,1,29.257-926.115Zm1.284-1.254a16.738,16.738,0,0,0,3.285,2.552,17.372,17.372,0,0,0,3.869,1.7,8.008,8.008,0,0,1-2.734,2.058,7.921,7.921,0,0,1-3.358.734,7.821,7.821,0,0,1-5.747-2.36,7.822,7.822,0,0,1-2.36-5.747,7.92,7.92,0,0,1,.734-3.358,8.007,8.007,0,0,1,2.058-2.734,17.373,17.373,0,0,0,1.7,3.868A16.736,16.736,0,0,0,30.541-927.369Zm8.6,1.931q-.452-.116-.892-.256T37.38-926a5.779,5.779,0,0,0,.374-1.183,6.248,6.248,0,0,0,.123-1.238,6.08,6.08,0,0,0-1.846-4.464,6.08,6.08,0,0,0-4.464-1.846,6.562,6.562,0,0,0-1.238.117,5.558,5.558,0,0,0-1.183.368q-.171-.432-.3-.855t-.24-.868a7.9,7.9,0,0,1,1.46-.423,8.288,8.288,0,0,1,1.531-.141,7.822,7.822,0,0,1,5.747,2.36,7.821,7.821,0,0,1,2.36,5.747,8.287,8.287,0,0,1-.141,1.531A7.9,7.9,0,0,1,39.145-925.438ZM30.67-939.076v-3.234h1.8v3.234Zm0,24.529v-3.234h1.8v3.234Zm9.075-20.771L38.461-936.6l2.264-2.245,1.284,1.266ZM22.418-918.01l-1.284-1.266,2.263-2.264,1.284,1.284Zm19.8-9.518v-1.8h3.234v1.8Zm-24.529,0v-1.8h3.234v1.8Zm23.034,9.536-2.264-2.263,1.284-1.284,2.245,2.264ZM23.4-935.319l-2.245-2.264,1.266-1.284,2.264,2.263ZM29.257-926.115Z" transform="translate(-17.59 942.41)" stroke="#f7f7f7" stroke-width="0.2"/>
</svg>
