<svg xmlns="http://www.w3.org/2000/svg" width="470.712" height="334.047" viewBox="0 0 470.712 334.047">
  <g id="Group_1" data-name="Group 1" transform="translate(-113 -524.852)">
    <g id="Group_5" data-name="Group 5" transform="translate(-219.006 331.701)">
      <path id="bg-01" d="M379.255,89.768c11.969,7.561,79.14,49.95,91.735,60.8a15.31,15.31,0,0,0,1.25,1c6.431,4.925,55.112,43.885,56.9,84.987a27.676,27.676,0,0,1-.357,5.423c-1.876,10.561-9.737,52.8-16.7,62.438a28.919,28.919,0,0,0-3.484,6.422c-5.628,13.986-22.6,53.875-36.89,64.579a39.9,39.9,0,0,0-5.449,4.925c-5.985,6.422-27.511,20.979-97.987,16.341,0,0-110.671-3.782-138.9-1.427a59.226,59.226,0,0,1-6.165.143c-14.738-.571-69.136-3.568-88.43-15.556a36.371,36.371,0,0,0-6.165-3.14,117.691,117.691,0,0,1-68.685-77.069,18.654,18.654,0,0,1-.8-4.353c-.894-8.634-2.59-40.531,7.771-109.962a17.8,17.8,0,0,0,.268-3.068c.268-9.85,4.555-69.36,67.617-83.489a48.565,48.565,0,0,0,7.235-2.212c24.025-9.776,164.888-63.294,233.935-9.134C376.93,88.127,378.092,88.983,379.255,89.768Z" transform="translate(273.563 129.619)" fill="#f9f9f9"/>
      <g id="Group_4" data-name="Group 4" transform="translate(53.242 62.8)">
        <g id="Group_3" data-name="Group 3" transform="translate(390.674 192.407)">
          <path id="Path" d="M7.448,14.9A7.45,7.45,0,1,0,0,7.46,7.45,7.45,0,0,0,7.448,14.9Z" transform="translate(194.795 93.725)" fill="#f4f4f4"/>
          <path id="Path-2" data-name="Path" d="M4.9,9.8A4.891,4.891,0,1,0,1.436,8.371,4.9,4.9,0,0,0,4.9,9.8Z" transform="translate(0 133.174)" fill="#f4f4f4"/>
          <path id="Path-3" data-name="Path" d="M4.9,9.817A4.908,4.908,0,1,0,0,4.908,4.908,4.908,0,0,0,4.9,9.817Z" transform="translate(21.989 227.324)" fill="#f4f4f4"/>
          <path id="Path-4" data-name="Path" d="M12.187,4.266H7.922V0H4.266V4.266H0V8.044H4.266V12.31H7.922V8.044h4.266Z" transform="translate(9.801 62.069)" fill="#ececec"/>
          <path id="Path-5" data-name="Path" d="M12.187,4.266H7.922V0H4.266V4.266H0V8.044H4.266V12.31H7.922V8.044h4.266Z" transform="translate(-3.688 179.837)" fill="#ececec"/>
          <path id="Path-6" data-name="Path" d="M17.246,10.109l-5.22-2.63,2.635-5.22L10.187,0,7.552,5.22,2.333,2.591,0,7.207l5.218,2.63-2.635,5.22,4.474,2.259L9.692,12.1l5.22,2.63Z" transform="translate(210.392 192.147)" fill="#ececec"/>
          <g id="noun-box-177774" transform="translate(12.078 70.994)">
            <path id="Path_13" data-name="Path 13" d="M159.336,72.888,134.956,52.1l17.2-16.253a1.444,1.444,0,0,0,.378-.945c0-.378-.378-.567-.756-.756L109.632,18.837a1.25,1.25,0,0,0-1.134.189L89.976,35.657,72.589,19.026a.831.831,0,0,0-.945-.189L20.239,32.822a1.476,1.476,0,0,0-.756.756.831.831,0,0,0,.189.945l16.442,16.82L10.978,71.755c-.378.189-.378.567-.378.945a.844.844,0,0,0,.567.756c11.151,4.725,19.466,8.127,25.325,10.584v35.152a1.039,1.039,0,0,0,.567.945l42.523,18.332h.756l53.107-18.332a1.256,1.256,0,0,0,.756-.945V82.716l24.569-8.127a1.476,1.476,0,0,0,.756-.756A.831.831,0,0,0,159.336,72.888ZM129.854,52.1l-31.373,9.45-7.56,2.268V38.681L105.1,43.595ZM88.843,64.573l-8.694,2.646-39.31-15.5,48-13.04Zm20.6-43.468,40.066,14.363-16.442,15.5-5.859-2.079-35.341-12.1Zm-37.987,0L87.709,36.791,37.815,50.4l-15.5-15.875ZM37.815,52.666,78.07,68.542C68.431,76.1,55.2,86.685,52.745,88.386c-3.4-1.323-24-10.017-38.932-16.253Zm.945,32.318c13.607,5.67,13.985,5.67,14.174,5.67.567,0,.567,0,14.552-10.962,4.725-3.78,9.45-7.371,11.906-9.261v65.58L38.949,118.624V84.984Zm93.551,33.452L81.283,136.012V70.621l24.569,21.167c.189.189.378.189.756.189h.378l25.325-8.5Zm-25.7-28.727L82.417,68.731l50.65-15.308L156.5,73.266Z" transform="translate(12.266 0)" fill="#cbcbcb"/>
          </g>
          <g id="Group_2" data-name="Group 2" transform="matrix(0.934, -0.358, 0.358, 0.934, 59.642, -3.641)">
            <g id="Group_1-2" data-name="Group 1">
              <path id="Path-7" data-name="Path" d="M13.96,100.208l-1.013-.349c.236-.686.474-1.368.707-2.028l1.01.357C14.433,98.845,14.2,99.524,13.96,100.208Zm1.426-4.034-1.007-.366c.247-.681.5-1.359.742-2.015l1,.375C15.881,94.821,15.632,95.5,15.386,96.174Zm1.5-4-1-.386c.259-.67.523-1.343.786-2l1,.4c-.272.647-.53,1.312-.788,1.982ZM18.47,88.2l-.991-.409c.26-.63.531-1.278.83-1.981l.987.418C19,86.93,18.729,87.575,18.47,88.2Zm1.667-3.941-.985-.422c.318-.741.581-1.356.839-1.969l.988.415c-.26.617-.524,1.234-.842,1.977Zm1.657-3.97-1-.393c.273-.693.517-1.343.746-1.989l1.01.358c-.23.658-.478,1.32-.756,2.025Zm1.442-4.077-1.023-.318c.206-.661.4-1.328.595-2.039l1.034.283c-.2.722-.4,1.4-.606,2.074Zm-4.912-3.446a18.3,18.3,0,0,1-2.194-.236l.179-1.057a17.222,17.222,0,0,0,2.065.223Zm2.2-.028-.077-1.069a17.777,17.777,0,0,0,2.061-.273l.2,1.052a18.85,18.85,0,0,1-2.184.29Zm3.851-.691-1.041-.254c.072-.293.144-.6.216-.9v-.019c.1-.383.2-.772.294-1.155l1.043.248c-.07.294-.144.59-.221.885.612-.193,1.223-.42,1.82-.674l.42.986a21.325,21.325,0,0,1-2.064.755l-.247-.8-.007.027c-.068.3-.141.607-.213.9Zm-10.4-.012A19.515,19.515,0,0,1,11.9,71.3l.415-.988a18.437,18.437,0,0,0,1.961.7Zm-4.055-1.7a20.213,20.213,0,0,1-1.861-1.176l.621-.873A19.135,19.135,0,0,0,10.448,69.4ZM28.89,70.2l-.517-.939a20.823,20.823,0,0,0,1.777-1.1l.608.882A21.9,21.9,0,0,1,28.89,70.2Zm-3.553-2.366-1.055-.186c.123-.7.225-1.4.3-2.088l1.065.12C25.569,66.389,25.464,67.114,25.337,67.834ZM6.344,67.786a20.115,20.115,0,0,1-1.562-1.551l.8-.718A19.042,19.042,0,0,0,7.06,66.985Zm26.157-.08-.7-.815a19.314,19.314,0,0,0,1.51-1.437l.78.735A20.387,20.387,0,0,1,32.5,67.706ZM3.4,64.519a19.51,19.51,0,0,1-1.181-1.86l.936-.522A18.432,18.432,0,0,0,4.27,63.894ZM35.512,64.5l-.86-.639a16.622,16.622,0,0,0,1.133-1.738l.933.527A17.7,17.7,0,0,1,35.512,64.5Zm-9.691-.993-1.071-.048c.032-.709.038-1.417.019-2.1l1.071-.03c.021.709.014,1.443-.019,2.179Zm-24.588-2.8a13.5,13.5,0,0,1-.755-2.1l1.035-.279a12.424,12.424,0,0,0,.694,1.931Zm36.476-.01-.974-.448a17.223,17.223,0,0,0,.748-1.938l1.021.327a18.3,18.3,0,0,1-.8,2.062ZM24.626,59.261c-.078-.7-.186-1.4-.321-2.07l1.05-.213c.142.7.255,1.43.336,2.165Zm14.442-2.74-1.047-.229c.143-.653.265-1.331.373-2.072l1.06.155C39.343,55.141,39.216,55.843,39.068,56.521Zm-38.995-.1a13.77,13.77,0,0,1-.05-2.228l1.07.064a12.694,12.694,0,0,0,.046,2.054Zm23.711-1.248a17.943,17.943,0,0,0-.743-1.943l.977-.441a19.026,19.026,0,0,1,.787,2.059Zm-22.4-2.942L.346,51.984a11.956,11.956,0,0,1,.715-2.124l.978.437a10.881,10.881,0,0,0-.65,1.934Zm38.324-.009-1.067-.1c.061-.631.118-1.324.172-2.121l1.069.073c-.05.8-.108,1.507-.17,2.147ZM22.073,51.4a15.264,15.264,0,0,0-1.2-1.688l.83-.678a16.341,16.341,0,0,1,1.28,1.807ZM3.05,48.537l-.869-.627c.123-.171.253-.34.386-.5l.022-.025a10.542,10.542,0,0,1,1.192-1.1l.664.841a9.472,9.472,0,0,0-1.059.976C3.271,48.24,3.158,48.388,3.05,48.537Zm16.409-.328a13.237,13.237,0,0,0-1.625-1.263l.589-.9a14.312,14.312,0,0,1,1.757,1.365Zm20.562-.283-1.07-.064q.022-.364.044-.725c-.017-.463-.035-.922-.053-1.365l1.071-.044c.019.453.037.923.054,1.4v.052Q40.044,47.55,40.021,47.926Zm-33.86-1.9-.484-.956a12.113,12.113,0,0,1,2.084-.82l.3,1.029a11.039,11.039,0,0,0-1.9.747Zm9.848-.092A9.666,9.666,0,0,0,14.12,45.2L14.4,44.17a10.74,10.74,0,0,1,2.1.816ZM10.067,44.89l-.112-1.066a12.461,12.461,0,0,1,2.237-.033l-.081,1.069a11.384,11.384,0,0,0-2.044.03Zm28.777-1.254c-.037-.731-.077-1.449-.118-2.134l1.07-.065c.042.688.082,1.41.119,2.145Zm-.262-4.264c-.054-.728-.113-1.445-.175-2.129l1.067-.1c.062.69.121,1.412.176,2.146ZM38.2,35.121c-.079-.72-.164-1.432-.254-2.115L39,32.866c.091.691.178,1.411.257,2.139ZM37.638,30.9c-.111-.706-.232-1.412-.36-2.1l1.054-.2c.129.7.252,1.411.365,2.127Zm-.78-4.184c-.148-.685-.31-1.383-.48-2.073l1.041-.257c.173.7.336,1.407.487,2.1Zm-1.017-4.132c-.182-.663-.381-1.352-.59-2.047l1.026-.308c.211.7.412,1.4.6,2.071ZM34.617,18.5c-.207-.643-.432-1.325-.67-2.027l1.015-.344c.239.707.466,1.394.675,2.042ZM33.25,14.451c-.223-.636-.458-1.3-.717-2.016l1.008-.363c.26.724.5,1.386.72,2.024ZM31.8,10.424c-.222-.608-.464-1.265-.739-2.011l1-.371c.275.746.517,1.4.74,2.014ZM30.32,6.4l-.515-1.388-.23-.621,1-.373.23.621.515,1.388ZM28.83,2.381q-.362-.981-.743-2.01L29.093,0q.38,1.031.743,2.011Z" transform="translate(0 17.382)" fill="#cbcbcb"/>
              <path id="Path-8" data-name="Path" d="M13.438,5.763C13.419,8.9,10.507,10.8,6.816,9.8,2.929,9.155.178,8.457,0,5.668.09,2.815,3.214,1.69,6.87.422,11.255-1.321,13.189,2.7,13.438,5.763Z" transform="translate(24.693 0.536)" fill="#ececec"/>
              <path id="Path_-_Outline" data-name="Path - Outline" d="M9.273,11.143a7.9,7.9,0,0,1-2.035-.279A17.777,17.777,0,0,1,2.311,9.553,3.8,3.8,0,0,1,0,6.238V6.187A4.4,4.4,0,0,1,2.346,2.535,24.229,24.229,0,0,1,7.22.456,5.974,5.974,0,0,1,9.407,0a4.421,4.421,0,0,1,3.772,2.167,8.938,8.938,0,0,1,1.329,4.089q0,.023,0,.047A4.707,4.707,0,0,1,13,9.812,5.5,5.5,0,0,1,9.273,11.143ZM1.072,6.2A2.735,2.735,0,0,0,2.794,8.6,17.067,17.067,0,0,0,7.441,9.812l.052.011a6.841,6.841,0,0,0,1.781.248,4.435,4.435,0,0,0,3.008-1.052,3.6,3.6,0,0,0,1.156-2.7,7.83,7.83,0,0,0-1.152-3.561A3.354,3.354,0,0,0,9.407,1.072a4.923,4.923,0,0,0-1.8.384l-.022.008a23.6,23.6,0,0,0-4.66,1.974,4.57,4.57,0,0,0-1.35,1.225,2.817,2.817,0,0,0-.5,1.537Z" transform="translate(24.157)" fill="#cbcbcb"/>
              <path id="Path-9" data-name="Path" d="M1.324,9.714c1.97,2.029,6.124,2.615,8.148-.475C11.69,5.8,13.59,3.3,11.549,1.013,9.579-1.016,7.661.347,3.276,2.091-.238,3.881-.984,7.495,1.324,9.714Z" transform="translate(11.69 6.158)" fill="#ececec"/>
              <path id="Path_-_Outline-2" data-name="Path - Outline" d="M5.964,12.467h0a6.518,6.518,0,0,1-2.466-.5,6.056,6.056,0,0,1-2.015-1.341,4.825,4.825,0,0,1-1.234-1.9,4.511,4.511,0,0,1-.2-2.157,6.139,6.139,0,0,1,3.52-4.42l.045-.021c.706-.281,1.362-.557,1.94-.8A12.305,12.305,0,0,1,9.894,0,3.436,3.436,0,0,1,12.47,1.175l.015.016a3.753,3.753,0,0,1,.768,3.914,19.226,19.226,0,0,1-2.329,4.241c-.152.233-.308.474-.465.717h0A5.2,5.2,0,0,1,5.964,12.467ZM4.034,3.115A5.082,5.082,0,0,0,1.111,6.727a3.548,3.548,0,0,0,1.12,3.136l.013.013A5.335,5.335,0,0,0,5.963,11.4h0a4.163,4.163,0,0,0,3.6-1.918c.158-.245.315-.486.467-.719a18.624,18.624,0,0,0,2.206-3.981,2.692,2.692,0,0,0-.538-2.868,2.4,2.4,0,0,0-1.8-.842A11.849,11.849,0,0,0,5.971,2.315C5.394,2.558,4.742,2.833,4.034,3.115Z" transform="translate(11.153 5.622)" fill="#cbcbcb"/>
              <path id="Path-10" data-name="Path" d="M2.315.341a4.056,4.056,0,0,1,4.9,1.252A5.013,5.013,0,0,1,8.243,3.3c1.526,3.566,1.046,7.1-1.013,7.94C4.975,12.417,1.869,10.4.681,7.029.4,5.967.256,5.444.042,4.651A3.826,3.826,0,0,1,2.315.341Z" transform="translate(19.788 2.582)" fill="#ececec"/>
              <path id="Shape" d="M4.539,0A4.769,4.769,0,0,1,6.616.47,3.959,3.959,0,0,1,8.177,1.8a5.556,5.556,0,0,1,1.11,1.862,11.47,11.47,0,0,1,.9,3.6,6.907,6.907,0,0,1-.409,3.087,3.375,3.375,0,0,1-1.786,1.92,3.525,3.525,0,0,1-1.621.385,5.184,5.184,0,0,1-3.319-1.388A8.409,8.409,0,0,1,.711,7.742.082.082,0,0,1,.7,7.7C.415,6.64.271,6.108.06,5.327A.536.536,0,0,1,.046,5.25,4.356,4.356,0,0,1,2.641.383,4.834,4.834,0,0,1,4.539,0ZM6.371,11.58a2.463,2.463,0,0,0,1.148-.28l.045-.021A2.326,2.326,0,0,0,8.786,9.94a8.136,8.136,0,0,0-.5-5.889.535.535,0,0,1-.025-.074A4.556,4.556,0,0,0,7.35,2.484a.536.536,0,0,1-.05-.061A3.29,3.29,0,0,0,4.539,1.072a3.768,3.768,0,0,0-1.479.3A3.1,3.1,0,0,0,1.434,2.833a3.966,3.966,0,0,0-.329,2.253c.2.756.347,1.287.623,2.32a7.318,7.318,0,0,0,2.026,3.049A4.126,4.126,0,0,0,6.371,11.58Z" transform="translate(19.252 2.047)" fill="#cbcbcb"/>
            </g>
          </g>
        </g>
      </g>
    </g>
  </g>
</svg>
