<svg xmlns="http://www.w3.org/2000/svg" xmlns:xlink="http://www.w3.org/1999/xlink" width="550" height="489" viewBox="0 0 550 489">
  <defs>
    <clipPath id="clip-Web_1920_1">
      <rect width="550" height="489"/>
    </clipPath>
  </defs>
  <g id="Web_1920_1" data-name="Web 1920 – 1" clip-path="url(#clip-Web_1920_1)">
    <rect width="550" height="489" fill="#fff"/>
    <g id="Group_8" data-name="Group 8" transform="translate(-702 -337)">
      <path id="bg-01" d="M427.9,101.354c13.784,10.9,91.14,72.007,105.645,87.643a19.011,19.011,0,0,0,1.44,1.44c7.406,7.1,63.469,63.263,65.526,122.515a49.792,49.792,0,0,1-.411,7.818c-2.16,15.224-11.213,76.122-19.236,90.009a45.839,45.839,0,0,0-4.012,9.258c-6.481,20.162-26.025,77.665-42.484,93.095a51.619,51.619,0,0,0-6.275,7.1c-6.892,9.258-31.683,30.243-112.845,23.557,0,0-127.452-5.452-159.958-2.057a54.544,54.544,0,0,1-7.1.206c-16.973-.823-79.619-5.143-101.838-22.425a39.508,39.508,0,0,0-7.1-4.526c-14.3-7.1-61.823-35.695-79.1-111.1a33.02,33.02,0,0,1-.926-6.275c-1.029-12.447-2.983-58.428,8.949-158.518a31.97,31.97,0,0,0,.309-4.423c.309-14.2,5.246-99.987,77.87-120.355a48,48,0,0,0,8.332-3.189C182.354,97.034,344.575,19.884,424.092,97.96,425.223,98.988,426.561,100.223,427.9,101.354Z" transform="translate(647.567 277.471)" fill="#f9f9f9"/>
      <g id="Group_5" data-name="Group 5" transform="translate(812.982 448.941)">
        <path id="Path_24" data-name="Path 24" d="M850.875,557.383l72.575,44.364,98.583-15.911V530.245Z" transform="translate(-820.143 -419.855)" fill="#e8e8e8"/>
        <path id="Path_25" data-name="Path 25" d="M847.721,599.755v92.669L923.43,737.9V603.35L896.4,628.212Z" transform="translate(-820.234 -417.862)" fill="#f4f4f4"/>
        <g id="Group_4" data-name="Group 4" transform="translate(0 0)">
          <g id="Group_2" data-name="Group 2" transform="translate(0 76.632)">
            <path id="Path_1" data-name="Path 1" d="M907.035,565.737l29.18,36.63,172.6-31.17-29.767-33.452Z" transform="translate(-803.36 -460.081)" fill="none" stroke="#cbcbcb" stroke-linecap="round" stroke-linejoin="round" stroke-width="2"/>
            <path id="Path_2" data-name="Path 2" d="M882.333,593.9l29.152-26.89L835.2,521.375l-28.309,28.067Z" transform="translate(-806.232 -460.551)" fill="none" stroke="#cbcbcb" stroke-linecap="round" stroke-linejoin="round" stroke-width="2"/>
            <path id="Path_3" data-name="Path 3" d="M834.313,523.07l173.58-27.477-29-33.347L806.25,490.655Z" transform="translate(-806.25 -462.246)" fill="none" stroke="#cbcbcb" stroke-linecap="round" stroke-linejoin="round" stroke-width="2"/>
            <path id="Path_4" data-name="Path 4" d="M1002.273,497.8h0l75.065,44,26.82-25.482-74.117-45.191Z" transform="translate(-800.63 -464.137)" fill="none" stroke="#cbcbcb" stroke-linecap="round" stroke-linejoin="round" stroke-width="2"/>
            <path id="Path_5" data-name="Path 5" d="M1081.954,575.16V676.126L908.872,702.867l-76.126-45.925V566.07" transform="translate(-805.49 -459.269)" fill="none" stroke="#cbcbcb" stroke-linecap="round" stroke-linejoin="round" stroke-width="2"/>
            <path id="Path_6" data-name="Path 6" d="M895.473,600.566v23.7" transform="translate(-803.692 -460.338)" fill="none" stroke="#cbcbcb" stroke-linecap="round" stroke-width="2"/>
            <path id="Path_7" data-name="Path 7" d="M895.473,644.6V632.324" transform="translate(-803.692 -452.226)" fill="none" stroke="#cbcbcb" stroke-linecap="round" stroke-width="2"/>
            <path id="Path_8" data-name="Path 8" d="M1002.273,503.744v47.385" transform="translate(-800.63 -461.056)" fill="none" stroke="#cbcbcb" stroke-linecap="round" stroke-width="2"/>
            <path id="Path_9" data-name="Path 9" d="M907.035,569.156V694.489" transform="translate(-803.36 -459.181)" fill="none" stroke="#cbcbcb" stroke-linecap="round" stroke-width="2"/>
            <path id="Path_10" data-name="Path 10" d="M849.961,619.9l23.282,7.659" transform="translate(-804.997 -457.726)" fill="none" stroke="#cbcbcb" stroke-linecap="round" stroke-width="2"/>
            <path id="Path_11" data-name="Path 11" d="M849.961,627.342l22.11,7.572" transform="translate(-804.997 -457.513)" fill="none" stroke="#cbcbcb" stroke-linecap="round" stroke-width="2"/>
            <path id="Path_12" data-name="Path 12" d="M849.961,634.7l22.213,7.739" transform="translate(-804.997 -457.301)" fill="none" stroke="#cbcbcb" stroke-linecap="round" stroke-width="2"/>
            <path id="Path_13" data-name="Path 13" d="M848.861,642.227l7.871,2.248" transform="translate(-805.028 -457.086)" fill="none" stroke="#cbcbcb" stroke-linecap="round" stroke-width="2"/>
            <path id="Path_15" data-name="Path 15" d="M866.516,647.471l9.329,2.625" transform="translate(-810.694 -458.993)" fill="none" stroke="#cbcbcb" stroke-linecap="round" stroke-width="2"/>
            <path id="Path_16" data-name="Path 16" d="M895.473,626.237v5.7" transform="translate(-803.692 -457.544)" fill="none" stroke="#cbcbcb" stroke-linecap="round" stroke-width="2"/>
            <path id="Path_17" data-name="Path 17" d="M983.578,620.3s8.4,7.529,11.438-1.194" transform="translate(-801.166 -457.749)" fill="none" stroke="#cbcbcb" stroke-linecap="round" stroke-width="2"/>
            <path id="Path_18" data-name="Path 18" d="M1023.636,613.437s8.191,8.258,10.975-1.042" transform="translate(-800.017 -457.941)" fill="none" stroke="#cbcbcb" stroke-linecap="round" stroke-width="2"/>
            <path id="Path_19" data-name="Path 19" d="M989.138,634.628s18.867-18.67,41.846-6" transform="translate(-795.287 -447.239)" fill="none" stroke="#cbcbcb" stroke-linecap="round" stroke-width="2"/>
          </g>
          <g id="Group_3" data-name="Group 3" transform="translate(103.855 0)">
            <path id="Path_21" data-name="Path 21" d="M0,0,33.278,41.085" transform="translate(0 17.778) rotate(-3)" fill="none" stroke="#cbcbcb" stroke-linecap="round" stroke-width="2"/>
            <path id="Path_22" data-name="Path 22" d="M0,0,25.167,41.029" transform="matrix(0.883, 0.469, -0.469, 0.883, 42.962, 0)" fill="none" stroke="#cbcbcb" stroke-linecap="round" stroke-width="2"/>
            <path id="Path_23" data-name="Path 23" d="M33.278,0,0,41.085" transform="translate(53.114 16.449) rotate(-3)" fill="none" stroke="#cbcbcb" stroke-linecap="round" stroke-width="2"/>
          </g>
        </g>
      </g>
      <g id="noun_Cloud_932" transform="translate(1121.523 498.133)">
        <path id="Path_26" data-name="Path 26" d="M57.517,40.692H8.324a8.324,8.324,0,0,1-2.019-16.4,12.017,12.017,0,0,1,9.7-7.444,17.728,17.728,0,0,1,33.732-6.7,16.262,16.262,0,1,1,7.778,30.543Z" fill="#fff"/>
      </g>
      <g id="noun_Cloud_4281257" transform="translate(740.142 467.69)">
        <path id="Path_27" data-name="Path 27" d="M53.187,14.68a14.835,14.835,0,0,0-3.221.362A20.878,20.878,0,0,0,10,23.523v.4A10.3,10.3,0,0,0,11.54,44.413H53.187a14.867,14.867,0,0,0,0-29.733Z" transform="translate(-1.214 -2.633)" fill="#fff"/>
      </g>
      <g id="noun_Cloud_1833258" transform="translate(816.068 387.29)">
        <g id="Group_6" data-name="Group 6" transform="translate(0 0)">
          <path id="Path_28" data-name="Path 28" d="M74.47,27.323A27.18,27.18,0,0,0,48.243,46.25,16.9,16.9,0,0,0,43,45.425a16.484,16.484,0,0,0-13.4,6.746,24.379,24.379,0,0,0-7.282-1.082C12.757,51.089,5,56.338,5,62.808s7.759,11.72,17.326,11.72a24.86,24.86,0,0,0,5.669-.645A38.135,38.135,0,0,0,41.838,76.83c.386.027.774.041,1.167.041l.306,0,.477,0a41.241,41.241,0,0,0,14.276-2.362,28.2,28.2,0,0,0,31.245,1.057,35.985,35.985,0,0,0,12.383,2.086c12.407,0,22.468-5.641,22.468-12.6s-10.031-12.581-22.412-12.6c-.6-13.976-12.584-25.134-27.278-25.134Z" transform="translate(-4.997 -27.323)" fill="#fff" fill-rule="evenodd"/>
        </g>
        <g id="Group_7" data-name="Group 7" transform="translate(227.336 32.902)">
          <path id="Path_28-2" data-name="Path 28" d="M55.418,27.323c-9.029,0-16.646,7.24-19.035,17.138a10.065,10.065,0,0,0-3.8-.747c-4.027,0-7.583,2.416-9.724,6.108a14.485,14.485,0,0,0-5.285-.98C10.629,48.843,5,53.6,5,59.453s5.631,10.612,12.575,10.612a14.644,14.644,0,0,0,4.114-.584A23.119,23.119,0,0,0,31.735,72.15c.28.025.562.037.847.037l.222,0,.346,0A24.646,24.646,0,0,0,43.51,70.048a17.7,17.7,0,0,0,11.907,4.772,17.455,17.455,0,0,0,10.769-3.815,21.515,21.515,0,0,0,8.987,1.889c9,0,16.306-5.108,16.306-11.406S84.2,50.1,75.215,50.081c-.434-12.654-9.133-22.758-19.8-22.758Z" transform="translate(-4.997 -27.323)" fill="#fff" fill-rule="evenodd"/>
        </g>
      </g>
    </g>
  </g>
</svg>
