<svg xmlns="http://www.w3.org/2000/svg" width="87.705" height="91.445" viewBox="0 0 87.705 91.445">
  <path id="order-success3" d="M.5,44.4c.1-.1.1-.2.2-.3a6.2,6.2,0,0,1,7.4-4.9h.3c-3.6-3.6-3.9-7.2-1.1-10s6.4-2.4,10,1.2a6.558,6.558,0,0,1,1.3-5.6,6.055,6.055,0,0,1,6.2-2.1,1.44,1.44,0,0,1,1.3,1.6c-.1.8-.8,1.1-1.7,1-3.2-.4-5.1,1.6-4.4,4.8.6,2.7,1.2,5.3,1.8,8a.764.764,0,0,0,.2.5,17.652,17.652,0,0,1,2.3,0c1.1.1,1.6.7,1.5,1.6-.1.8-.7,1.2-1.8,1a4.212,4.212,0,0,0-4.4,2.9,4.126,4.126,0,0,0,6.6,4.4,3.941,3.941,0,0,0,1.3-4.4c-.1-.4-.3-.8-.2-1.1a2.905,2.905,0,0,1,1.1-1.1,1.091,1.091,0,0,1,1.4.9,6.845,6.845,0,0,1-1.5,7.3c-1,1-1,1.2-.3,2.4,1.3,2.1,2.6,4.3,4,6.4a3.657,3.657,0,0,0,5.5.9c.9-.7,1.6-.7,2.2-.1.5.6.3,1.4-.4,2.1l-.3.3c4.6,3.6,4.6,3.6,7.2,7.9.2-.6.3-1.2.5-1.7l3-7.8a1.59,1.59,0,0,0,0-1.5,8.118,8.118,0,0,1-.7-5.9,15.665,15.665,0,0,0,.5-3c-.6.9-1.1,1.8-1.7,2.7a8.074,8.074,0,0,1-7.1,3.9,8.282,8.282,0,0,1-4.6-15.1A30.627,30.627,0,0,0,39,39.5c-1,.2-2,.5-3,.7a8.239,8.239,0,1,1,0-16,15.44,15.44,0,0,0,3.1.5c-1-.6-1.9-1.2-2.9-1.8A8.27,8.27,0,0,1,33,13.1a7.885,7.885,0,0,1,6.8-5.3,7.919,7.919,0,0,1,7.9,3.7,24.265,24.265,0,0,0,2,2.8c-.2-1-.5-2-.7-3a8.247,8.247,0,1,1,16-4,9.379,9.379,0,0,1-.2,4.7,9.283,9.283,0,0,0-.3,2.4c.6-.9,1.2-1.9,1.8-2.8A7.979,7.979,0,0,1,74.4,8a7.878,7.878,0,0,1,6.8,6,8.076,8.076,0,0,1-3.4,9A24.266,24.266,0,0,0,75,25c.8-.2,1.5-.3,2.3-.5a8.316,8.316,0,0,1,9.8,12,8.409,8.409,0,0,1-9.2,4c-1.6-.4-3.3-.8-4.9-1.1-.8,1.7-1.3,1.8-2.9.8a36.159,36.159,0,0,0-3.3-2,8.083,8.083,0,0,0-2.2-.7,1.546,1.546,0,0,0-.6.3c.6.6,1.1,1,1.6,1.5l3,3a1.422,1.422,0,0,1,.1,2c-.6.6-1.3.5-2-.1l-3.9-3.9a2.507,2.507,0,0,0-.7-.4c0,.3-.1.6,0,.8a20.362,20.362,0,0,0,.9,2.2c1.9,3,3.7,6.1,5.7,9a5.421,5.421,0,0,0,5.5,2.4,5.111,5.111,0,0,0,4.4-3.8,5.345,5.345,0,0,0-2.3-6.4c-1.1-.7-1.4-1.5-.9-2.2.5-.8,1.3-.8,2.5,0A8.325,8.325,0,0,1,74.8,57a8.335,8.335,0,0,1-8.4-3.6,24.264,24.264,0,0,0-2-2.8c.2.9.4,1.9.6,2.8.8,3.6-.1,6.6-3.1,8.8s-6.2,2.2-9.4.3a.349.349,0,0,1-.2-.1h-.1a36.223,36.223,0,0,0-3.8,11.5c3.3-2.4,7.1-1.5,10.7-1.6a2.372,2.372,0,0,1,2.3,2.1c.1,1.9.3,3.9-.5,5.8a12.811,12.811,0,0,1-1.1,2,1.28,1.28,0,0,1-1.8.3,1.2,1.2,0,0,1-.3-1.8C59,79,58.9,77,58.8,75c-2.1,0-4.2-.2-6.3,0a5.2,5.2,0,0,0-4.6,4.5c-.1,1,0,2.1,0,3.2h5.9A1.321,1.321,0,0,1,55.1,84a1.261,1.261,0,0,1-1.3,1.3h-6v5.2a2.078,2.078,0,0,1-.9,1.9H46a1.983,1.983,0,0,1-.9-1.9,28.053,28.053,0,0,0,0-2.9H40.7a6.536,6.536,0,0,1-6.4-5.4,17.85,17.85,0,0,1-.1-4,2.285,2.285,0,0,1,2.3-2c2.9.1,5.8-.7,8.6,1.1a14.489,14.489,0,0,0-5.9-11.6,11.333,11.333,0,0,0-5.1-2.3,5.515,5.515,0,0,1-3.7-2.2,3.191,3.191,0,0,0-.6-.7,6.464,6.464,0,0,1-6.2,7.9c-3.2,0-6.9-2.7-6.1-7.8-3.5,3.5-7.2,3.9-10,1.1-2.8-2.9-2.4-6.5,1.2-9.9H8.2a5.815,5.815,0,0,1-5.9-2.2,16.812,16.812,0,0,1-1.5-3A6.368,6.368,0,0,1,.5,44.4Zm64.9-9.9a.769.769,0,0,1,.3.2c4.3,1,8.6,2,13,3a5.391,5.391,0,0,0,5.7-2.4,5.258,5.258,0,0,0,0-6.1,5.391,5.391,0,0,0-5.7-2.4c-2.8.6-5.6,1.3-8.4,1.9-1.6.4-3.3.8-4.9,1.2a4.253,4.253,0,0,1,.2,1.1h6.2a1.378,1.378,0,0,1,1.5,1.3,1.321,1.321,0,0,1-1.5,1.3H65.6A2.92,2.92,0,0,1,65.4,34.5ZM48.1,29.8c-.2-.1-.3-.1-.4-.2-4.3-1-8.6-2-12.9-2.9a5.552,5.552,0,0,0-5.7,8.5,5.391,5.391,0,0,0,5.7,2.4c3.4-.7,6.7-1.5,10-2.3,1.1-.2,2.2-.5,3.3-.8-.1-.4-.2-.7-.3-1.1H41.5a1.347,1.347,0,0,1-1.4-1.3,1.321,1.321,0,0,1,1.3-1.3h6.4A1.929,1.929,0,0,0,48.1,29.8Zm11-6.3c.1-.2.1-.3.2-.4,1-4.3,2-8.6,2.9-13a5.531,5.531,0,0,0-8.6-5.6,5.24,5.24,0,0,0-2.3,5.7c.5,2.3,1,4.6,1.5,6.8l1.5,6.3c.4-.1.7-.2,1.1-.3V16.7a1.26,1.26,0,0,1,1.3-1.3,1.4,1.4,0,0,1,1.4,1.2v6.5A2.6,2.6,0,0,0,59.1,23.5ZM54.3,40.8c-1.1,4.6-2.2,9.1-3.1,13.6a5.169,5.169,0,0,0,2.5,5.5,5.549,5.549,0,0,0,8.4-5.6c-.6-3.1-1.4-6.2-2.1-9.4-.3-1.4-.6-2.7-1-4.1-.4.1-.7.2-1.1.3v6.2a1.394,1.394,0,0,1-1.4,1.5,1.321,1.321,0,0,1-1.3-1.5V41.1A2.187,2.187,0,0,0,54.3,40.8ZM78.6,16.3a5.766,5.766,0,0,0-3.9-5.8,5.55,5.55,0,0,0-6.3,2.2c-2.1,3.2-4.1,6.5-6.1,9.7a13.893,13.893,0,0,0-.6,1.9c0,.1.1.3.1.4a.6.6,0,0,0,.4-.1c.1-.1.3-.2.4-.4l3.8-3.8a1.384,1.384,0,0,1,1.7-.3,1.285,1.285,0,0,1,.6,1.5,2.361,2.361,0,0,1-.6.9l-3.9,3.9a1.072,1.072,0,0,0-.2.6,4.331,4.331,0,0,1,.5.1,7.491,7.491,0,0,0,1.6-.4c3.4-2.1,6.8-4.2,10.1-6.3A4.915,4.915,0,0,0,78.6,16.3Zm-27,22.9-4.4,4.4c-.8.8-1.5.9-2.2.3-.6-.6-.5-1.3.3-2.2l3.8-3.8c.2-.2.2-.4.4-.6-.3,0-.5-.1-.8-.1a5.732,5.732,0,0,0-1.4.4c-3.4,2.1-6.7,4.1-10,6.3a4.986,4.986,0,0,0-2.1,5.6,5.32,5.32,0,0,0,4.3,4.3,5.079,5.079,0,0,0,5.6-2c2.2-3.3,4.3-6.7,6.4-10.2A3.2,3.2,0,0,0,51.6,39.2Zm0-14.1a2.9,2.9,0,0,0-.3-2.5c-2-3.3-4.1-6.7-6.2-9.9a5.126,5.126,0,0,0-5.7-2.2,5.314,5.314,0,0,0-4.3,4.4,5.607,5.607,0,0,0,2.4,5.8l9,5.7a7.714,7.714,0,0,0,1.9.8,3.334,3.334,0,0,0,1,0,5.582,5.582,0,0,0-.5-.8l-3.8-3.8a1.359,1.359,0,0,1,.2-2.2,1.4,1.4,0,0,1,1.8.4C48.5,22,50,23.5,51.6,25.1Zm-1.1,7a6.253,6.253,0,0,0,6.2,6.3,6.25,6.25,0,0,0,.1-12.5A6.252,6.252,0,0,0,50.5,32.1ZM16.6,43.9c-.2-.1-.4-.1-.6-.2-2.8-.6-5.5-1.3-8.3-1.9a3.515,3.515,0,0,0-3.8,1.5,3.45,3.45,0,0,0,0,4.1,3.676,3.676,0,0,0,3.8,1.5c1.7-.4,3.4-.8,5-1.1,1.3-.3,2.7-.6,3.9-.9Zm5.2,8.2c-.7,3.1-1.5,6.2-2.1,9.3A3.287,3.287,0,0,0,21.5,65a3.3,3.3,0,0,0,3.9-.2,3.468,3.468,0,0,0,1.4-3.7,5.16,5.16,0,0,1-.2-1.1c-.6-2.6-1.2-5.3-1.8-7.9ZM8,33.7a3.72,3.72,0,0,0,1.8,3.2c2,1.3,4,2.5,5.9,3.7,1.6,1,1.6.9,3-.2a1.189,1.189,0,0,0,.3-1.7c-1.5-2.4-2.9-4.7-4.4-7.1a3.469,3.469,0,0,0-4.1-1.3A3.452,3.452,0,0,0,8,33.7Zm3.5,26.9a3.626,3.626,0,0,0,3.3-1.8c1.2-2,2.5-4,3.7-5.9,1-1.6.9-1.6-.2-2.9a1.116,1.116,0,0,0-1.7-.3c-2.4,1.5-4.9,3-7.3,4.6a3.39,3.39,0,0,0-1.1,4.1A3.613,3.613,0,0,0,11.5,60.6ZM36.6,78.5a22.534,22.534,0,0,0,0,2.6,3.419,3.419,0,0,0,2.7,3.2,49.329,49.329,0,0,0,5.5.3V81.9a3.732,3.732,0,0,0-3.3-3.4C39.9,78.4,38.3,78.5,36.6,78.5Z" transform="translate(-0.5 -0.955)" fill="#777e5d"/>
</svg>
