<svg xmlns="http://www.w3.org/2000/svg" width="1141.805" height="815.827" viewBox="0 0 1141.805 815.827">
  <path id="order-success-border" d="M409.2,97.6C567,32.5,575.7,23.5,627.7,15.1c96.7-15.7,178.6-2.8,208.7,2.2C910.4,29.5,960,51,975.6,57.9c22.1,10,49.7,22.6,77.6,46.1a230.969,230.969,0,0,1,52.9,65.6c13.6,25.4,24.7,58.2,23.4,135.7-1.1,65-9.5,70.4-11,118.2-3.9,117,44.5,132.6,24.6,210.5-5.3,20.6-22.5,88-96.1,129.2-43.1,24.2-92.3,31.8-155.1,41.6-36.6,5.7-65.1,7.4-121.9,11.1-70.6,4.5-105.9,6.7-142.6,5.3-76.7-3.1-134.9-16.7-199.8-32.1C384.7,779,350.9,771,308.2,755.8c-57.9-20.5-159.3-56.4-231.6-136.6C58.5,599.1,28.8,565.3,15,515.8-9.7,426.2,36.5,353.2,56.9,321c43.7-69,105-109.5,135.5-129.2C236.4,163.3,249.2,163.5,409.2,97.6Z" transform="translate(-6.986 -6.678)" fill="none" stroke="#777e5d" stroke-miterlimit="10" stroke-width="1.824" stroke-dasharray="3.656 4.572" opacity="0.6"/>
</svg>
