<svg xmlns="http://www.w3.org/2000/svg" width="21.518" height="25" viewBox="0 0 21.518 25">
  <path id="Refund" d="M30.823,25H15.383a3.041,3.041,0,0,1-3.039-3.039V15.628a3.041,3.041,0,0,1,3.039-3.039h15.44a3.041,3.041,0,0,1,3.039,3.039V21.96A3.041,3.041,0,0,1,30.823,25Zm-7.911-9.267a3.023,3.023,0,1,0,3.023,3.023,3.025,3.025,0,0,0-3.023-3.023Zm0,1.786a1.238,1.238,0,1,1-1.239,1.238A1.238,1.238,0,0,1,22.912,17.518Zm5.349,2.115h1.258a.893.893,0,1,0,0-1.786H28.262a.893.893,0,0,0,0,1.786Zm-11.989,0h1.257a.893.893,0,1,0,0-1.786H16.273a.893.893,0,1,0,0,1.786Zm13.172,6.118a.893.893,0,0,1,1.262,1.263A11.516,11.516,0,0,1,15.96,28.3v2.059a.893.893,0,0,1-1.786,0V26.383a.893.893,0,0,1,1.525-.632,9.724,9.724,0,0,0,13.745,0ZM16.763,11.76A.893.893,0,1,1,15.5,10.5,11.516,11.516,0,0,1,30.246,9.215V7.142a.893.893,0,1,1,1.786,0v3.985a.894.894,0,0,1-1.525.633,9.72,9.72,0,0,0-13.744,0Z" transform="translate(-12.344 -6.249)" fill-rule="evenodd"/>
</svg>
