<svg xmlns="http://www.w3.org/2000/svg" width="26.999" height="25.767" viewBox="0 0 26.999 25.767">
  <g id="Return" transform="translate(-1533 -687.567)">
    <path id="Path_33548" data-name="Path 33548" d="M23.772,9.052H6.1L8.686,6.467A1.053,1.053,0,0,0,7.2,4.978L2.809,9.364a1.053,1.053,0,0,0,0,1.489L7.2,15.24a1.053,1.053,0,0,0,1.49-1.489L6.093,11.159H23.773A3.628,3.628,0,0,1,27.4,14.781v4.465a3.626,3.626,0,0,1-3.134,3.589l.294,2.08a5.726,5.726,0,0,0,4.945-5.67V14.781a5.734,5.734,0,0,0-5.728-5.728Z" transform="translate(1530.498 682.896)"/>
    <path id="Path_33549" data-name="Path 33549" d="M37.113,39.924a1.265,1.265,0,0,0-1.253-1.088h-.671v-.094a3.9,3.9,0,0,0-3.024-3.855,3.835,3.835,0,0,0-4.632,3.746v.2h-.671a1.266,1.266,0,0,0-1.253,1.088l-1.4,9.884a1.93,1.93,0,0,0,1.911,2.2H36.6a1.93,1.93,0,0,0,1.911-2.2Zm-7.882-1.292a2.129,2.129,0,1,1,4.259,0v.2H29.23v-.2Zm2.13,6.684a3.532,3.532,0,0,1-3.528-3.528.849.849,0,1,1,1.7,0,1.831,1.831,0,0,0,3.661,0,.849.849,0,1,1,1.7,0,3.532,3.532,0,0,1-3.528,3.528Z" transform="translate(1514.972 661.326)"/>
  </g>
</svg>
