<svg xmlns="http://www.w3.org/2000/svg" width="470.712" height="334.047" viewBox="0 0 470.712 334.047">
  <g id="Group_4" data-name="Group 4" transform="translate(-653 -560)">
    <g id="Group_3" data-name="Group 3">
      <g id="Group_2" data-name="Group 2" transform="translate(541 32)">
        <g id="Group_5" data-name="Group 5" transform="translate(-219.006 331.701)">
          <path id="bg-01" d="M379.255,89.768c11.969,7.561,79.14,49.95,91.735,60.8a15.31,15.31,0,0,0,1.25,1c6.431,4.925,55.112,43.885,56.9,84.987a27.676,27.676,0,0,1-.357,5.423c-1.876,10.561-9.737,52.8-16.7,62.438a28.919,28.919,0,0,0-3.484,6.422c-5.628,13.986-22.6,53.875-36.89,64.579a39.9,39.9,0,0,0-5.449,4.925c-5.985,6.422-27.511,20.979-97.987,16.341,0,0-110.671-3.782-138.9-1.427a59.226,59.226,0,0,1-6.165.143c-14.738-.571-69.136-3.568-88.43-15.556a36.371,36.371,0,0,0-6.165-3.14,117.691,117.691,0,0,1-68.685-77.069,18.654,18.654,0,0,1-.8-4.353c-.894-8.634-2.59-40.531,7.771-109.962a17.8,17.8,0,0,0,.268-3.068c.268-9.85,4.555-69.36,67.617-83.489a48.565,48.565,0,0,0,7.235-2.212c24.025-9.776,164.888-63.294,233.935-9.134C376.93,88.127,378.092,88.983,379.255,89.768Z" transform="translate(272.563 132.767)" fill="#f9f9f9"/>
          <g id="Group_4-2" data-name="Group 4" transform="translate(53.242 62.8)">
            <g id="Group_3-2" data-name="Group 3" transform="translate(390.674 192.407)">
              <path id="Path" d="M7.448,14.9A7.45,7.45,0,1,0,0,7.46,7.45,7.45,0,0,0,7.448,14.9Z" transform="translate(194.795 93.725)" fill="#f4f4f4"/>
              <path id="Path-2" data-name="Path" d="M4.9,9.8A4.891,4.891,0,1,0,1.436,8.371,4.9,4.9,0,0,0,4.9,9.8Z" transform="translate(0 133.174)" fill="#f4f4f4"/>
              <path id="Path-3" data-name="Path" d="M4.9,9.817A4.908,4.908,0,1,0,0,4.908,4.908,4.908,0,0,0,4.9,9.817Z" transform="translate(21.989 227.324)" fill="#f4f4f4"/>
              <path id="Path-4" data-name="Path" d="M12.187,4.266H7.922V0H4.266V4.266H0V8.044H4.266V12.31H7.922V8.044h4.266Z" transform="translate(9.801 62.069)" fill="#ececec"/>
              <path id="Path-5" data-name="Path" d="M12.187,4.266H7.922V0H4.266V4.266H0V8.044H4.266V12.31H7.922V8.044h4.266Z" transform="translate(-3.688 179.837)" fill="#ececec"/>
              <path id="Path-6" data-name="Path" d="M17.246,10.109l-5.22-2.63,2.635-5.22L10.187,0,7.552,5.22,2.333,2.591,0,7.207l5.218,2.63-2.635,5.22,4.474,2.259L9.692,12.1l5.22,2.63Z" transform="translate(210.392 192.147)" fill="#ececec"/>
            </g>
          </g>
          <g id="noun-add-list-5879744" transform="translate(477.782 274.299)">
            <path id="Path_14" data-name="Path 14" d="M29.748,277.89a1.561,1.561,0,0,0,.185.226,1.477,1.477,0,0,0,1.049.434,1.273,1.273,0,0,0,.289-.03,1.411,1.411,0,0,0,.278-.082,1.7,1.7,0,0,0,.256-.137,1.56,1.56,0,0,0,.226-.185,1.585,1.585,0,0,0,.185-.226,1.491,1.491,0,0,0,.133-.256,1.441,1.441,0,0,0,.086-.274,1.539,1.539,0,0,0,.03-.293,1.483,1.483,0,0,0-2.531-1.045,1.527,1.527,0,0,0-.185.222,1.675,1.675,0,0,0-.133.256,1.594,1.594,0,0,0-.085.278,1.442,1.442,0,0,0,0,.582,1.467,1.467,0,0,0,.085.274,1.521,1.521,0,0,0,.133.256Z" transform="translate(-18.566 -163.375)" fill="#cbcbcb"/>
            <path id="Path_15" data-name="Path 15" d="M118.738,242.037h61.847a1.483,1.483,0,0,0,0-2.965H118.738a1.483,1.483,0,1,0,0,2.965Z" transform="translate(-85.031 -139.072)" fill="#cbcbcb"/>
            <path id="Path_19" data-name="Path 19" d="M118.738,242.037h61.847a1.483,1.483,0,0,0,0-2.965H118.738a1.483,1.483,0,1,0,0,2.965Z" transform="translate(-85.031 -160.072)" fill="#cbcbcb"/>
            <path id="Path_16" data-name="Path 16" d="M119.275,306.909H174.5c1.115,0,2.02-.664,2.02-1.483s-.9-1.483-2.02-1.483H119.275c-1.115,0-2.02.664-2.02,1.483S118.159,306.909,119.275,306.909Z" transform="translate(-85.031 -183.944)" fill="#cbcbcb"/>
            <path id="Path_20" data-name="Path 20" d="M118.738,306.909h40.534a1.483,1.483,0,1,0,0-2.965H118.738a1.483,1.483,0,1,0,0,2.965Z" transform="translate(-85.031 -162.944)" fill="#cbcbcb"/>
            <path id="Path_17" data-name="Path 17" d="M159.362,115.341V40.864A9.179,9.179,0,0,0,150.2,31.69H124.753c-2.6-.009-8.575.03-2.965,0,0,0,13.679,0,0,0H67.073c5.249.021,4.791.064-2.965,0H38.664A9.179,9.179,0,0,0,29.5,40.864v59.3a1.483,1.483,0,1,0,2.965,0V62.274H156.4v53.088A39.3,39.3,0,0,0,119.63,162.1H38.664a6.211,6.211,0,0,1-6.2-6.208V125.639a1.483,1.483,0,0,0-2.965,0v30.252a9.179,9.179,0,0,0,9.164,9.174h81.662a39.25,39.25,0,1,0,39.036-49.724ZM32.465,59.309V40.864a6.211,6.211,0,0,1,6.2-6.208H64.108c.091.056,6.678-.013,2.965,0h54.715v-.4c0,.152-10.933.481,2.965.4H150.2a6.211,6.211,0,0,1,6.2,6.208V59.309Zm125.69,131.63a36.327,36.327,0,1,1,36.276-36.326,36.327,36.327,0,0,1-36.276,36.326Z" transform="translate(-18.566)" fill="#cbcbcb"/>
            <path id="Path_18" data-name="Path 18" d="M362.459,357.621h-15.2V342.4a1.483,1.483,0,0,0-2.965,0v15.223h-15.2a1.483,1.483,0,1,0,0,2.965h15.2v15.222a1.483,1.483,0,0,0,2.965,0V360.586h15.2a1.483,1.483,0,1,0,0-2.965Z" transform="translate(-206.187 -204.491)" fill="#cbcbcb"/>
          </g>
        </g>
      </g>
    </g>
  </g>
</svg>
